<svg width="45" height="42" viewBox="0 0 45 42" fill="none" xmlns="http://www.w3.org/2000/svg">
<rect width="44.52" height="42" rx="6" fill="#4285F4"/>
<path d="M26.5154 26.4194H25.1606C24.9112 26.4194 24.709 26.6216 24.709 26.871C24.709 27.1204 24.9112 27.3227 25.1606 27.3227H26.5154C26.7648 27.3227 26.967 27.1204 26.967 26.871C26.967 26.6216 26.7648 26.4194 26.5154 26.4194Z" fill="white"/>
<path d="M29.2264 26.4194H27.8715C27.6221 26.4194 27.4199 26.6216 27.4199 26.871C27.4199 27.1204 27.6221 27.3227 27.8715 27.3227H29.2264C29.4758 27.3227 29.678 27.1204 29.678 26.871C29.678 26.6216 29.4758 26.4194 29.2264 26.4194Z" fill="white"/>
<path d="M31.9354 26.4194H30.5805C30.3311 26.4194 30.1289 26.6216 30.1289 26.871C30.1289 27.1204 30.3311 27.3227 30.5805 27.3227H31.9354C32.1848 27.3227 32.387 27.1204 32.387 26.871C32.387 26.6216 32.1848 26.4194 31.9354 26.4194Z" fill="white"/>
<path d="M33.7419 7H10.2581C9.0115 7.00154 8.00154 8.0115 8 9.25806V32.7419C8.00154 33.9885 9.0115 34.9985 10.2581 35H33.7419C34.9885 34.9985 35.9985 33.9885 36 32.7419V9.25806C35.9985 8.0115 34.9885 7.00154 33.7419 7ZM35.0968 32.7419C35.0968 33.4901 34.4901 34.0968 33.7419 34.0968H10.2581C9.50986 34.0968 8.90323 33.4901 8.90323 32.7419V9.25806C8.90323 8.50986 9.50986 7.90323 10.2581 7.90323H33.7419C34.4901 7.90323 35.0968 8.50986 35.0968 9.25806V32.7419Z" fill="white"/>
<path d="M33.7421 20.5486H22.4518V9.25825C22.4518 9.00885 22.2496 8.80664 22.0002 8.80664C21.7508 8.80664 21.5486 9.00885 21.5486 9.25825V20.5486H10.2583C10.0089 20.5486 9.80664 20.7508 9.80664 21.0002C9.80664 21.2496 10.0089 21.4518 10.2583 21.4518H21.5486V32.7421C21.5486 32.9915 21.7508 33.1937 22.0002 33.1937C22.2496 33.1937 22.4518 32.9915 22.4518 32.7421V21.4518H33.7421C33.9915 21.4518 34.1937 21.2496 34.1937 21.0002C34.1937 20.7508 33.9915 20.5486 33.7421 20.5486Z" fill="white"/>
<path d="M14.0993 14.1838L15.2253 13.0579V18.2903C15.2253 18.5397 15.4275 18.7419 15.6769 18.7419C15.9263 18.7419 16.1285 18.5397 16.1285 18.2903V11.9677C16.1285 11.7851 16.0185 11.6204 15.8498 11.5505C15.6811 11.4806 15.4868 11.5194 15.3576 11.6484L13.4607 13.5452C13.2896 13.7223 13.292 14.0041 13.4663 14.1783C13.6405 14.3525 13.9223 14.355 14.0993 14.1838Z" fill="white"/>
<path d="M17.9361 25.2902C17.8692 24.1076 16.861 23.2002 15.678 23.258C14.4949 23.2002 13.4867 24.1076 13.4199 25.2902C13.4199 25.5396 13.6221 25.7419 13.8715 25.7419C14.1209 25.7419 14.3231 25.5396 14.3231 25.2902C14.3917 24.6078 14.9942 24.1056 15.678 24.1612C16.3618 24.1056 16.9642 24.6078 17.0328 25.2902C16.9642 25.9727 16.3618 26.4748 15.678 26.4193C15.4286 26.4193 15.2264 26.6215 15.2264 26.8709C15.2264 27.1203 15.4286 27.3225 15.678 27.3225C16.3618 27.2669 16.9642 27.769 17.0328 28.4515C16.9642 29.134 16.3618 29.6361 15.678 29.5806C14.9942 29.6361 14.3917 29.134 14.3231 28.4515C14.3231 28.2021 14.1209 27.9999 13.8715 27.9999C13.6221 27.9999 13.4199 28.2021 13.4199 28.4515C13.4867 29.6341 14.4949 30.5416 15.678 30.4838C16.861 30.5416 17.8692 29.6341 17.9361 28.4515C17.9268 27.82 17.6139 27.2316 17.0957 26.8709C17.6139 26.5101 17.9268 25.9218 17.9361 25.2902Z" fill="white"/>
<path d="M26.4262 14.3164C26.6756 14.3164 26.8778 14.1141 26.8778 13.8647C26.8778 13.0665 27.525 12.4195 28.3231 12.4195C28.7886 12.4087 29.2223 12.6546 29.4521 13.0594C29.6987 13.4991 29.6909 14.0372 29.4323 14.4698C28.7696 15.4333 27.978 16.3016 27.0798 17.0503C26.7385 17.3665 26.4059 17.6721 26.1069 17.9712C25.9779 18.1004 25.9393 18.2947 26.0092 18.4633C26.0791 18.632 26.2436 18.7421 26.4262 18.7421H30.1295C30.3789 18.7421 30.5812 18.5399 30.5812 18.2905C30.5812 18.0411 30.3789 17.8389 30.1295 17.8389H27.5553L27.6909 17.7143C28.6563 16.9085 29.5037 15.9711 30.208 14.9296C30.6316 14.2178 30.642 13.3337 30.2352 12.6122C29.8446 11.9264 29.1123 11.5068 28.3231 11.5163C27.0267 11.5176 25.9759 12.5681 25.9746 13.8647C25.9746 14.1141 26.1768 14.3164 26.4262 14.3164Z" fill="white"/>
</svg>
