<svg width="70" height="60" viewBox="0 0 70 60" fill="none" xmlns="http://www.w3.org/2000/svg">
<path d="M62.9183 35.7128C62.9121 35.7111 62.9057 35.7096 62.8994 35.7082C62.3335 35.5739 61.7657 35.9231 61.6303 36.4887C58.0489 51.4638 43.006 60.7 28.031 57.1186C19.8084 55.152 12.9223 49.5605 9.30971 41.9168L7.20044 42.3577C14.02 57.4472 31.7806 64.1514 46.8702 57.332C55.3154 53.5154 61.521 46.0078 63.68 36.9952C63.8237 36.4306 63.4828 35.8565 62.9183 35.7128Z" fill="#4285F4"/>
<path d="M14.1428 37.676C14.1077 37.4895 14.0229 37.3159 13.8975 37.1737L9.79217 32.5976L5.73451 28.0693C5.37671 27.6096 4.71413 27.527 4.25444 27.8848C4.0882 28.0143 3.96442 28.1907 3.89932 28.391L1.96881 34.2362L0.0502071 40.0754C-0.126906 40.6303 0.179504 41.2236 0.734379 41.4007C0.898383 41.453 1.07252 41.4644 1.24188 41.4339L7.25985 40.1707L13.3017 38.9076C13.8741 38.7999 14.2507 38.2484 14.1428 37.676ZM6.86064 38.1033L2.62423 38.9971L3.97082 34.8858L5.32338 30.7805L8.20724 33.998L11.0911 37.2155L6.86064 38.1033Z" fill="#4285F4"/>
<path d="M69.0126 19.3822C68.8933 18.8135 68.3364 18.4485 67.7673 18.5659L61.7493 19.8291L55.7373 21.0625C55.1648 21.1703 54.7883 21.7218 54.8961 22.2941C54.9313 22.4806 55.016 22.6541 55.1414 22.7964L59.2468 27.3724L63.3044 31.9008C63.6622 32.3605 64.3248 32.443 64.7845 32.0852C64.9507 31.9557 65.0745 31.7795 65.1396 31.579L67.0523 25.7338L68.9649 19.8887C69.0221 19.7263 69.0385 19.5523 69.0126 19.3822ZM65.0622 25.1142L63.7156 29.2195L60.8317 26.002L57.9478 22.7844L62.1783 21.8966L66.4088 21.0088L65.0622 25.1142Z" fill="#4285F4"/>
<path d="M22.1688 2.66804C13.7237 6.48468 7.51802 13.9922 5.359 23.0049C5.19842 23.5648 5.52226 24.1488 6.0822 24.3093C6.64214 24.4699 7.22606 24.1461 7.38664 23.5861C7.39543 23.5556 7.40273 23.5246 7.40869 23.4935C10.9967 8.52007 26.0435 -0.709772 41.0171 2.87822C49.237 4.84791 56.1194 10.4403 59.7293 18.0833L61.8385 17.6424C55.019 2.55274 37.2584 -4.15148 22.1688 2.66804Z" fill="#4285F4"/>
<path d="M45.5783 11.4218C45.5783 10.8394 45.1061 10.3672 44.5237 10.3672H30.8849C30.4292 10.3678 30.0256 10.6609 29.8839 11.0941L23.5382 30.5125C23.3178 31.0516 23.5761 31.6674 24.1151 31.8878C24.244 31.9406 24.3821 31.9672 24.5214 31.9663H29.2881L25.1172 48.2149C24.9212 48.7633 25.2067 49.3669 25.7552 49.5629C26.1635 49.7089 26.6195 49.59 26.9047 49.2635L44.5356 28.7548C44.9406 28.3362 44.9297 27.6686 44.5111 27.2635C44.3059 27.0648 44.0287 26.9579 43.7431 26.9672H37.5583L45.4115 11.9998C45.522 11.8273 45.5799 11.6265 45.5783 11.4218ZM34.883 27.5631C34.6165 28.081 34.8201 28.7169 35.3381 28.9834C35.4867 29.0598 35.6513 29.0999 35.8185 29.1004H41.4372L28.2215 44.467L31.6416 31.1917C31.7831 30.6267 31.4398 30.054 30.8748 29.9125C30.7924 29.8918 30.7076 29.8812 30.6227 29.8809H25.9752L31.6476 12.4824H42.7778L34.883 27.5631Z" fill="#4285F4"/>
</svg>
