<svg width="52" height="60" viewBox="0 0 52 60" fill="none" xmlns="http://www.w3.org/2000/svg">
<path d="M50.2398 10.3607C41.9846 8.09872 33.6808 4.57666 26.2262 0.175341C25.8302 -0.0584471 25.3388 -0.0584471 24.943 0.175341C17.2733 4.7031 9.41822 8.03462 0.928592 10.3607C0.380155 10.5108 0 11.0093 0 11.578V24.474C0 37.754 6.12643 46.5444 11.266 51.5801C16.7991 57.0018 23.2444 60 25.5845 60C27.9244 60 34.3697 57.0018 39.9028 51.5801C45.0423 46.5446 51.1684 37.7541 51.1684 24.474V11.5779C51.1684 11.0093 50.7882 10.5108 50.2398 10.3607ZM48.6442 24.4739C48.6442 36.8773 42.93 45.0798 38.1361 49.7769C32.695 55.1084 26.8775 57.4756 25.5845 57.4756C24.2916 57.4756 18.4737 55.1084 13.0325 49.7769C8.23873 45.0797 2.52433 36.8773 2.52433 24.4739V12.536C10.6428 10.2309 18.2035 7.01404 25.5848 2.72463C32.7817 6.90025 40.7196 10.2771 48.6442 12.5355V24.4739Z" fill="#4285F4"/>
<path d="M14.3978 12.3954C14.1423 11.7467 13.4095 11.4281 12.7608 11.6837C10.5061 12.5721 8.19187 13.3898 5.88246 14.1143C5.35617 14.2795 4.99805 14.767 4.99805 15.3185V20.1924C4.99805 20.8894 5.56324 21.4545 6.26015 21.4545C6.95707 21.4545 7.52226 20.8894 7.52226 20.1924V16.2409C9.59401 15.5705 11.6635 14.8291 13.6861 14.0321C14.3347 13.7768 14.6533 13.044 14.3978 12.3954Z" fill="#4285F4"/>
<path d="M16.7948 12.6346C16.9641 12.6346 17.136 12.6005 17.3009 12.5286L17.3241 12.5185C17.9627 12.2386 18.2502 11.4953 17.9704 10.857C17.6903 10.2185 16.9428 9.92959 16.3049 10.2092L16.2845 10.218C15.6456 10.497 15.3571 11.2397 15.6361 11.8784C15.8432 12.3525 16.3079 12.6346 16.7948 12.6346Z" fill="#4285F4"/>
<path d="M40.622 40.6976C40.0388 40.3164 39.2567 40.4803 38.875 41.0638C37.8349 42.6557 36.6148 44.18 35.2479 45.5941C34.1239 46.7569 32.9058 47.8406 31.6276 48.815C31.0735 49.2376 30.9668 50.0296 31.3893 50.584C31.6378 50.9096 32.0137 51.081 32.3938 51.081C32.6608 51.081 32.9297 50.9967 33.1582 50.8223C34.5369 49.771 35.8506 48.6023 37.0626 47.3487C38.5404 45.8201 39.8611 44.1701 40.9882 42.4445C41.3697 41.8609 41.2055 41.0788 40.622 40.6976Z" fill="#4285F4"/>
<path d="M28.6969 50.7944L28.6244 50.8371C28.0213 51.1864 27.8152 51.9585 28.1644 52.5616C28.3984 52.9659 28.822 53.1916 29.2578 53.1916C29.4723 53.1916 29.69 53.1369 29.8889 53.0215L29.9724 52.9724C30.574 52.6201 30.776 51.847 30.4237 51.2455C30.0712 50.6442 29.298 50.4425 28.6969 50.7944Z" fill="#4285F4"/>
<path d="M16.9816 27.4247C16.2066 26.6496 15.1759 26.223 14.0798 26.223C12.9836 26.223 11.9528 26.6497 11.1775 27.4247C9.57755 29.025 9.57755 31.6289 11.1775 33.2291L18.6301 40.6815C19.4052 41.4563 20.4359 41.883 21.5322 41.883C22.6285 41.883 23.6591 41.4563 24.4343 40.6813L39.9922 25.1232C41.592 23.5226 41.592 20.919 39.992 19.3193C39.2169 18.5442 38.1862 18.1177 37.0898 18.1177C35.9935 18.1177 34.9629 18.5444 34.1877 19.3193L21.5321 31.9749L16.9816 27.4247ZM35.9727 21.1043C36.2709 20.8061 36.6678 20.6419 37.0899 20.6419C37.5123 20.6419 37.9089 20.8061 38.2073 21.1043C38.8231 21.7201 38.8231 22.7225 38.2071 23.3386L22.6494 38.8964C22.3512 39.1946 21.9543 39.3588 21.5322 39.3588C21.1101 39.3588 20.7131 39.1946 20.4148 38.8964L12.9624 31.4442C12.3463 30.8282 12.3463 29.8257 12.9622 29.2099C13.2605 28.9117 13.6574 28.7473 14.0796 28.7473C14.5019 28.7473 14.8986 28.9114 15.1968 29.2097L20.6396 34.6526C20.8764 34.8892 21.1972 35.0222 21.5321 35.0222C21.8669 35.0222 22.1877 34.8893 22.4243 34.6526L35.9727 21.1043Z" fill="#4285F4"/>
</svg>
