<svg width="61" height="60" viewBox="0 0 61 60" fill="none" xmlns="http://www.w3.org/2000/svg">
<path d="M47.501 60H12.5003C9.7427 60 7.50016 57.7575 7.50016 54.9999V32.4994H2.50005C1.09752 32.4994 0 31.4019 0 29.9994C0 29.3319 0.272506 28.6818 0.747515 28.2118L29.1231 0.356257C29.6106 -0.118752 30.3881 -0.118752 30.8756 0.356257L40.0008 9.31894V3.74883C40.0008 3.05881 40.5608 2.4988 41.2509 2.4988H51.2511C51.9411 2.4988 52.5011 3.05881 52.5011 3.74883V21.5742L59.2512 28.2068C59.7262 28.6793 60.0012 29.3319 60.0012 29.9969C60.0012 31.3994 58.9037 32.4969 57.5012 32.4969H52.5011V54.9974C52.5011 57.7575 50.2585 60 47.501 60ZM30.0006 3.00131L2.50255 29.9919L8.75018 29.9994C9.4402 29.9994 10.0002 30.5594 10.0002 31.2494V54.9999C10.0002 56.3774 11.1202 57.4999 12.5003 57.4999H47.501C48.881 57.4999 50.001 56.3774 50.001 54.9999V31.2494C50.001 30.5594 50.5611 29.9994 51.2511 29.9994H57.5012C57.5012 29.9969 57.4962 29.9894 57.4937 29.9869L50.3735 22.9892C50.136 22.7567 50.001 22.4342 50.001 22.0992V4.99885H42.5009V12.299C42.5009 12.804 42.1984 13.2565 41.7334 13.4515C41.2659 13.644 40.7333 13.544 40.3733 13.1915L30.0006 3.00131Z" fill="#4285F4"/>
<path d="M31.2508 49.9997H23.7506C20.303 49.9997 17.5005 47.1947 17.5005 43.7496V33.7494C17.5005 30.3043 20.303 27.4993 23.7506 27.4993H31.2508C31.9408 27.4993 32.5008 28.0593 32.5008 28.7493C32.5008 29.4393 31.9408 29.9993 31.2508 29.9993H23.7506C21.6831 29.9993 20.0005 31.6819 20.0005 33.7494V43.7496C20.0005 45.8171 21.6831 47.4997 23.7506 47.4997H31.2508C31.9408 47.4997 32.5008 48.0597 32.5008 48.7497C32.5008 49.4397 31.9408 49.9997 31.2508 49.9997Z" fill="#4285F4"/>
<path d="M38.7508 29.9994C36.6833 29.9994 35.0007 28.3169 35.0007 26.2493C35.0007 24.1818 36.6833 22.4993 38.7508 22.4993C40.8184 22.4993 42.5009 24.1818 42.5009 26.2493C42.5009 28.3169 40.8184 29.9994 38.7508 29.9994ZM38.7508 24.9993C38.0633 24.9993 37.5008 25.5593 37.5008 26.2493C37.5008 26.9394 38.0633 27.4994 38.7508 27.4994C39.4383 27.4994 40.0008 26.9394 40.0008 26.2493C40.0008 25.5593 39.4383 24.9993 38.7508 24.9993Z" fill="#4285F4"/>
</svg>
