<svg width="72" height="60" viewBox="0 0 72 60" fill="none" xmlns="http://www.w3.org/2000/svg">
<path d="M35.8626 0C30.795 0 25.8593 1.77746 21.9648 5.0047C21.5181 5.37496 21.456 6.03731 21.8263 6.48405C22.1965 6.9308 22.8589 6.99286 23.3058 6.6226C26.824 3.70705 31.2835 2.10121 35.8626 2.10121C46.7248 2.10121 55.562 10.9383 55.562 21.8006C55.562 27.1775 53.3515 32.3293 49.4772 36.0377C48.9773 35.8788 48.4454 35.7924 47.8936 35.7924H39.0144V29.316C40.9438 28.6989 42.6778 27.5152 43.9613 25.9247C45.4464 24.0845 46.2641 21.7694 46.2641 19.4061C46.2641 17.6681 44.85 16.254 43.1121 16.254C41.3741 16.254 39.96 17.6681 39.96 19.4061C39.96 21.6654 38.1219 23.5037 35.8624 23.5037C33.6031 23.5037 31.7648 21.6654 31.7648 19.4061C31.7648 17.6681 30.3509 16.254 28.6128 16.254C26.8747 16.254 25.4608 17.6681 25.4608 19.4061C25.4608 21.7694 26.2786 24.0845 27.7636 25.9247C29.0469 27.515 30.781 28.6989 32.7104 29.316V35.7924H23.8312C23.2794 35.7924 22.7475 35.8787 22.2477 36.0377C18.3735 32.3293 16.163 27.1775 16.163 21.8006C16.163 17.2606 17.6639 12.9953 20.5034 9.46586C20.8672 9.01379 20.7955 8.35243 20.3434 7.98862C19.8912 7.6248 19.23 7.69653 18.8662 8.1486C15.7678 11.9995 14.0615 16.8479 14.0615 21.8005C14.0615 27.5429 16.3398 33.0528 20.3521 37.1192C19.274 38.0792 18.5933 39.4763 18.5933 41.03C18.5933 43.5585 20.3941 45.6741 22.7807 46.1619V49.3728C22.7807 53.2157 25.9072 56.3423 29.7502 56.3423H30.3873C31.2907 58.5312 33.4365 60 35.8623 60C38.2879 60 40.4337 58.5312 41.3373 56.3423H41.9744C42.749 56.3423 43.512 56.2152 44.2419 55.9644C44.7908 55.776 45.0829 55.1783 44.8944 54.6295C44.7057 54.0805 44.1075 53.7887 43.5595 53.9771C43.0496 54.1522 42.5164 54.2409 41.9745 54.2409H29.7503C27.0661 54.2409 24.8822 52.0571 24.8822 49.3728V46.2684H46.8427V49.3728C46.8427 50.247 46.6087 51.1029 46.1662 51.8483C45.87 52.3473 46.0343 52.9919 46.5332 53.2882C47.0322 53.5843 47.6769 53.4203 47.973 52.9211C48.6082 51.8513 48.944 50.6242 48.944 49.3728V46.1619C51.3304 45.6741 53.1314 43.5585 53.1314 41.03C53.1314 39.4763 52.4507 38.0792 51.3727 37.1192C55.3849 33.0528 57.6633 27.5428 57.6633 21.8003C57.6633 9.7798 47.8837 0 35.8626 0ZM35.8626 57.8991C34.6173 57.8991 33.4885 57.2981 32.7844 56.3427H38.9406C38.2367 57.2981 37.1078 57.8991 35.8626 57.8991ZM33.9974 27.4926C30.2686 26.6323 27.5622 23.2315 27.5622 19.4063C27.5622 18.8271 28.0335 18.3557 28.6129 18.3557C29.1923 18.3557 29.6636 18.8271 29.6636 19.4063C29.6636 22.8245 32.4445 25.6053 35.8626 25.6053C39.2806 25.6053 42.0615 22.8245 42.0615 19.4063C42.0615 18.8271 42.5328 18.3557 43.1122 18.3557C43.6916 18.3557 44.1629 18.8271 44.1629 19.4063C44.1629 23.2315 41.4565 26.6322 37.7276 27.4926C37.251 27.6026 36.9132 28.0272 36.9132 28.5164V35.7926H34.8119V28.5164C34.8119 28.027 34.4743 27.6026 33.9974 27.4926ZM47.8938 44.1669H23.8314C22.102 44.1669 20.6949 42.7599 20.6949 41.0305C20.6949 39.301 22.102 37.894 23.8314 37.894H47.8938C49.6232 37.894 51.0302 39.301 51.0302 41.0305C51.0302 42.7599 49.6232 44.1669 47.8938 44.1669Z" fill="#4285F4"/>
<path d="M59.193 13.2897L59.3559 13.6105C59.9622 14.8046 61.1842 15.5052 62.4544 15.5052C62.9049 15.5052 63.3616 15.4171 63.7988 15.2314L67.3925 13.7064C68.2731 13.3328 68.9661 12.6031 69.294 11.7044C69.6219 10.8058 69.5614 9.80131 69.1284 8.94845L68.7235 8.1512C68.2905 7.29834 67.5151 6.65687 66.5961 6.39126C65.6771 6.12565 64.679 6.25454 63.8577 6.74513L60.5059 8.74658C58.9485 9.67621 58.3718 11.6719 59.193 13.2897C59.193 13.2895 59.193 13.2897 59.193 13.2897ZM61.5834 10.5502L64.9352 8.54878C65.5857 8.13986 66.5181 8.40925 66.8501 9.10213L67.255 9.89951C67.6185 10.5764 67.2859 11.4881 66.5719 11.7719L62.9782 13.297C62.3209 13.5759 61.553 13.2956 61.2299 12.659L61.0669 12.3382C60.7435 11.7016 60.9706 10.9163 61.5834 10.5502Z" fill="#4285F4"/>
<path d="M70.758 19.4235C70.1067 18.7462 69.1988 18.3604 68.2601 18.3604C68.2434 18.3604 68.2266 18.3605 68.2098 18.3606L64.3063 18.4181C62.4925 18.4448 60.9949 19.8847 60.8974 21.6963V21.6964L60.8781 22.0556C60.7806 23.8671 62.1146 25.4597 63.9153 25.6809L67.7901 26.157C67.9297 26.1741 68.0697 26.1827 68.2091 26.1827C69.0182 26.1827 69.8123 25.898 70.4377 25.3739C71.171 24.7596 71.6211 23.8596 71.6725 22.9043L71.7205 22.0114C71.7718 21.0562 71.421 20.1129 70.758 19.4235ZM69.6223 21.8986L69.5742 22.7914C69.5507 23.5592 68.8063 24.183 68.0464 24.0714L64.1717 23.5952C63.463 23.5081 62.9379 22.8816 62.9765 22.1684L62.9958 21.8092C63.0342 21.0963 63.6234 20.5296 64.3373 20.5191L68.2407 20.4617C69.0133 20.4324 69.679 21.1326 69.6223 21.8986Z" fill="#4285F4"/>
<path d="M66.4943 30.7021L63.0849 28.8001C61.5004 27.916 59.4836 28.4146 58.4938 29.9346L58.2974 30.2362C57.3071 31.7563 57.6663 33.8024 59.1151 34.8943L62.2328 37.244C63.7688 38.4509 66.1903 38.0234 67.2212 36.3683L67.7093 35.619C68.2315 34.8175 68.3992 33.8251 68.1697 32.8965C67.9404 31.9681 67.3296 31.1682 66.4943 30.7021ZM65.9486 34.4721L65.4605 35.2214C65.056 35.8746 64.1008 36.0424 63.4975 35.566L60.3798 33.2163C59.8098 32.7866 59.6683 31.9814 60.058 31.3834L60.2544 31.0819V31.0818C60.646 30.4791 61.4466 30.2901 62.061 30.6353L65.4704 32.5373C66.1499 32.8959 66.3828 33.8381 65.9486 34.4721Z" fill="#4285F4"/>
<path d="M12.5332 13.2896H12.5322V13.2906L12.5332 13.2896Z" fill="#4285F4"/>
<path d="M4.33308 13.7052L7.92679 15.2302C8.36415 15.4158 8.8207 15.504 9.27123 15.504C10.5413 15.504 11.7636 14.8034 12.3697 13.6093L12.5325 13.2885C13.354 11.6708 12.7771 9.675 11.2194 8.74494L7.86767 6.74363C7.04647 6.25318 6.04847 6.12416 5.12935 6.38977C4.21036 6.65537 3.43497 7.29684 3.00196 8.1497L2.59696 8.94709C2.16394 9.8001 2.1037 10.8047 2.43151 11.7033C2.75946 12.6019 3.45248 13.3316 4.33308 13.7052ZM4.47065 9.89844L4.87565 9.10105C5.04852 8.76049 5.34579 8.5145 5.71282 8.40845C5.83918 8.37189 5.9675 8.35381 6.0947 8.35381C6.33692 8.35381 6.57535 8.41924 6.79039 8.5477L10.1422 10.5492C10.7552 10.9152 10.9821 11.7005 10.6589 12.3371V12.3373L10.496 12.6581C10.1727 13.2946 9.40487 13.5747 8.74757 13.2959L5.15386 11.7709C4.80224 11.6217 4.53649 11.3419 4.40565 10.983C4.27467 10.6242 4.29778 10.239 4.47065 9.89844Z" fill="#4285F4"/>
<path d="M3.93529 26.157L7.81016 25.6808C9.61087 25.4595 10.9449 23.8672 10.8474 22.0556L10.8281 21.6964C10.7306 19.8849 9.23333 18.4449 7.41931 18.4182L3.51573 18.3607C2.55598 18.3463 1.63041 18.7341 0.967365 19.4236C0.304323 20.1131 -0.0464599 21.0563 0.0049528 22.0116L0.0530034 22.9045C0.104416 23.8597 0.554523 24.7599 1.28761 25.3742C1.91297 25.8981 2.70713 26.1829 3.51629 26.1829C3.65582 26.1826 3.79577 26.1742 3.93529 26.157ZM2.15126 22.7913L2.10321 21.8984C2.08276 21.5169 2.2171 21.1552 2.48201 20.88C2.74187 20.6097 3.08986 20.4615 3.46389 20.4615C3.47076 20.4615 3.47776 20.4615 3.48477 20.4617L7.38835 20.5191C8.10225 20.5296 8.69146 21.0963 8.72985 21.8092L8.74918 22.1684C8.78756 22.8813 8.26251 23.5079 7.55394 23.595L3.67907 24.0712C3.29999 24.118 2.93001 24.0083 2.63709 23.763C2.34444 23.5178 2.17185 23.1728 2.15126 22.7913Z" fill="#4285F4"/>
<path d="M13.2321 29.9347C12.2418 28.4145 10.225 27.916 8.64084 28.8001L5.23163 30.7021C4.39628 31.1682 3.78549 31.968 3.55603 32.8966C3.32656 33.8253 3.49439 34.8175 4.0165 35.619L4.50457 36.3682C5.02668 37.1696 5.86652 37.7242 6.80862 37.8897C7.00628 37.9244 7.20535 37.9414 7.40386 37.9414C8.15179 37.9414 8.8895 37.699 9.49329 37.2439L12.6108 34.8942C14.0596 33.8022 14.4188 31.756 13.4285 30.2361L13.2321 29.9347ZM11.346 33.2163L8.22842 35.566C7.92345 35.7959 7.54843 35.886 7.17187 35.8202C6.79559 35.7542 6.47366 35.5415 6.26521 35.2214L5.77714 34.4721C5.56869 34.152 5.50425 33.7716 5.59601 33.4008C5.68776 33.03 5.92185 32.7233 6.25541 32.5372L9.66476 30.6352C9.87321 30.5189 10.1006 30.4634 10.3256 30.4634C10.7736 30.4634 11.212 30.6835 11.4715 31.0816L11.6679 31.3832C12.0575 31.9814 11.9161 32.7865 11.346 33.2163Z" fill="#4285F4"/>
</svg>
