<svg width="60" height="53" viewBox="0 0 60 53" fill="none" xmlns="http://www.w3.org/2000/svg">
<path d="M10.6452 11.6129H9.67743V9.67746C9.67743 9.4208 9.57547 9.17465 9.39398 8.99316C9.2125 8.81168 8.96635 8.70972 8.70969 8.70972H2.90323C2.64657 8.70972 2.40042 8.81168 2.21893 8.99316C2.03744 9.17465 1.93549 9.4208 1.93549 9.67746V11.6129H0.967743C0.711082 11.6129 0.464932 11.7149 0.283445 11.8964C0.101958 12.0779 0 12.324 0 12.5807V51.2904C0 51.5471 0.101958 51.7932 0.283445 51.9747C0.464932 52.1562 0.711082 52.2581 0.967743 52.2581H10.6452C10.9018 52.2581 11.148 52.1562 11.3295 51.9747C11.511 51.7932 11.6129 51.5471 11.6129 51.2904V12.5807C11.6129 12.324 11.511 12.0779 11.3295 11.8964C11.148 11.7149 10.9018 11.6129 10.6452 11.6129ZM3.87097 10.6452H7.74194V11.6129H3.87097V10.6452ZM9.67743 50.3227H1.93549V13.5484H9.67743V50.3227Z" fill="#333131"/>
<path d="M3.87106 16.4521C4.40553 16.4521 4.83881 16.0188 4.83881 15.4843C4.83881 14.9499 4.40553 14.5166 3.87106 14.5166C3.33659 14.5166 2.90332 14.9499 2.90332 15.4843C2.90332 16.0188 3.33659 16.4521 3.87106 16.4521Z" fill="#333131"/>
<path d="M7.74216 16.4521C8.27663 16.4521 8.7099 16.0188 8.7099 15.4843C8.7099 14.9499 8.27663 14.5166 7.74216 14.5166C7.20769 14.5166 6.77441 14.9499 6.77441 15.4843C6.77441 16.0188 7.20769 16.4521 7.74216 16.4521Z" fill="#333131"/>
<path d="M3.87106 49.3549C4.40553 49.3549 4.83881 48.9216 4.83881 48.3872C4.83881 47.8527 4.40553 47.4194 3.87106 47.4194C3.33659 47.4194 2.90332 47.8527 2.90332 48.3872C2.90332 48.9216 3.33659 49.3549 3.87106 49.3549Z" fill="#333131"/>
<path d="M7.74216 49.3549C8.27663 49.3549 8.7099 48.9216 8.7099 48.3872C8.7099 47.8527 8.27663 47.4194 7.74216 47.4194C7.20769 47.4194 6.77441 47.8527 6.77441 48.3872C6.77441 48.9216 7.20769 49.3549 7.74216 49.3549Z" fill="#333131"/>
<path d="M59.0322 11.6125H49.3548C49.0981 11.6125 48.852 11.7145 48.6705 11.896C48.489 12.0775 48.3871 12.3236 48.3871 12.5803V16.4513H47.4193V15.4835C47.4193 15.2269 47.3174 14.9807 47.1359 14.7992C46.9544 14.6177 46.7082 14.5158 46.4516 14.5158H40.6451C40.3884 14.5158 40.1423 14.6177 39.9608 14.7992C39.7793 14.9807 39.6774 15.2269 39.6774 15.4835V16.4513H38.7096V15.4835C38.7096 15.2269 38.6077 14.9807 38.4262 14.7992C38.2447 14.6177 37.9985 14.5158 37.7419 14.5158H31.9354C31.6788 14.5158 31.4326 14.6177 31.2511 14.7992C31.0696 14.9807 30.9677 15.2269 30.9677 15.4835V16.4513H29.0322C28.7755 16.4513 28.5294 16.5532 28.3479 16.7347C28.1664 16.9162 28.0645 17.1623 28.0645 17.419V23.2255C28.0645 23.4821 28.1664 23.7283 28.3479 23.9098C28.5294 24.0912 28.7755 24.1932 29.0322 24.1932H30.9677V39.6771H29.0322C28.7755 39.6771 28.5294 39.7791 28.3479 39.9605C28.1664 40.142 28.0645 40.3882 28.0645 40.6448V46.4513C28.0645 46.708 28.1664 46.9541 28.3479 47.1356C28.5294 47.3171 28.7755 47.419 29.0322 47.419H30.9677V48.3868C30.9677 48.6434 31.0696 48.8896 31.2511 49.0711C31.4326 49.2526 31.6788 49.3545 31.9354 49.3545H37.7419C37.9985 49.3545 38.2447 49.2526 38.4262 49.0711C38.6077 48.8896 38.7096 48.6434 38.7096 48.3868V47.419H39.6774V48.3868C39.6774 48.6434 39.7793 48.8896 39.9608 49.0711C40.1423 49.2526 40.3884 49.3545 40.6451 49.3545H46.4516C46.7082 49.3545 46.9544 49.2526 47.1359 49.0711C47.3174 48.8896 47.4193 48.6434 47.4193 48.3868V47.419H48.3871V51.29C48.3871 51.5467 48.489 51.7928 48.6705 51.9743C48.852 52.1558 49.0981 52.2578 49.3548 52.2578H59.0322C59.2889 52.2578 59.535 52.1558 59.7165 51.9743C59.898 51.7928 60 51.5467 60 51.29V12.5803C60 12.3236 59.898 12.0775 59.7165 11.896C59.535 11.7145 59.2889 11.6125 59.0322 11.6125ZM30.9677 45.4836H29.9999V41.6126H30.9677V45.4836ZM30.9677 22.2577H29.9999V18.3867H30.9677V22.2577ZM36.7741 47.419H32.9032V16.4513H36.7741V47.419ZM39.6774 45.4836H38.7096V41.6126H39.6774V45.4836ZM39.6774 39.6771H38.7096V24.1932H39.6774V39.6771ZM39.6774 22.2577H38.7096V18.3867H39.6774V22.2577ZM45.4838 47.419H41.6129V16.4513H45.4838V47.419ZM48.3871 45.4836H47.4193V41.6126H48.3871V45.4836ZM48.3871 39.6771H47.4193V24.1932H48.3871V39.6771ZM48.3871 22.2577H47.4193V18.3867H48.3871V22.2577ZM58.0645 50.3223H50.3225V13.548H58.0645V50.3223Z" fill="#333131"/>
<path d="M52.2588 16.4521C52.7932 16.4521 53.2265 16.0188 53.2265 15.4843C53.2265 14.9499 52.7932 14.5166 52.2588 14.5166C51.7243 14.5166 51.291 14.9499 51.291 15.4843C51.291 16.0188 51.7243 16.4521 52.2588 16.4521Z" fill="#333131"/>
<path d="M56.1289 16.4521C56.6633 16.4521 57.0966 16.0188 57.0966 15.4843C57.0966 14.9499 56.6633 14.5166 56.1289 14.5166C55.5944 14.5166 55.1611 14.9499 55.1611 15.4843C55.1611 16.0188 55.5944 16.4521 56.1289 16.4521Z" fill="#333131"/>
<path d="M52.2588 49.3549C52.7932 49.3549 53.2265 48.9216 53.2265 48.3872C53.2265 47.8527 52.7932 47.4194 52.2588 47.4194C51.7243 47.4194 51.291 47.8527 51.291 48.3872C51.291 48.9216 51.7243 49.3549 52.2588 49.3549Z" fill="#333131"/>
<path d="M56.1289 49.3549C56.6633 49.3549 57.0966 48.9216 57.0966 48.3872C57.0966 47.8527 56.6633 47.4194 56.1289 47.4194C55.5944 47.4194 55.1611 47.8527 55.1611 48.3872C55.1611 48.9216 55.5944 49.3549 56.1289 49.3549Z" fill="#333131"/>
<path d="M5.80661 7.74237C6.34108 7.74237 6.77435 7.3091 6.77435 6.77463C6.77435 6.24016 6.34108 5.80688 5.80661 5.80688C5.27214 5.80688 4.83887 6.24016 4.83887 6.77463C4.83887 7.3091 5.27214 7.74237 5.80661 7.74237Z" fill="#333131"/>
<path d="M7.74211 5.57767C7.93808 5.57769 8.12943 5.51821 8.29086 5.4071C8.45229 5.29599 8.57618 5.13849 8.64614 4.95543C8.71611 4.77238 8.72885 4.57239 8.68268 4.38194C8.63651 4.19149 8.53361 4.01954 8.38759 3.88884C7.67784 3.25388 6.75894 2.90283 5.80662 2.90283C4.8543 2.90283 3.9354 3.25388 3.22565 3.88884C3.13095 3.9736 3.05388 4.07618 2.99883 4.19072C2.94378 4.30527 2.91183 4.42953 2.9048 4.55643C2.89061 4.8127 2.97881 5.06411 3.14998 5.25535C3.32116 5.4466 3.5613 5.56201 3.81757 5.5762C4.07384 5.59039 4.32525 5.5022 4.5165 5.33102C4.87132 5.01374 5.33063 4.83834 5.80662 4.83834C6.28261 4.83834 6.74191 5.01374 7.09674 5.33102C7.27399 5.49016 7.5039 5.57803 7.74211 5.57767Z" fill="#333131"/>
<path d="M2.5809 3.16737C3.46801 2.374 4.61639 1.9354 5.80651 1.9354C6.99663 1.9354 8.14501 2.374 9.03212 3.16737C9.12661 3.25334 9.23719 3.31975 9.35748 3.36277C9.47777 3.40578 9.60539 3.42456 9.73297 3.41801C9.86055 3.41146 9.98557 3.37972 10.1008 3.32461C10.2161 3.2695 10.3193 3.19212 10.4045 3.09693C10.4897 3.00173 10.5552 2.89061 10.5972 2.76998C10.6392 2.64934 10.657 2.52158 10.6494 2.39405C10.6418 2.26653 10.609 2.14177 10.553 2.02697C10.4969 1.91217 10.4187 1.80961 10.3228 1.72519C9.08083 0.614212 7.4729 0 5.80651 0C4.14011 0 2.53218 0.614212 1.29017 1.72519C1.19429 1.80961 1.11607 1.91217 1.06002 2.02697C1.00397 2.14177 0.971212 2.26653 0.963623 2.39405C0.956034 2.52158 0.97377 2.64934 1.01581 2.76998C1.05784 2.89061 1.12335 3.00173 1.20854 3.09693C1.29374 3.19212 1.39694 3.2695 1.51219 3.32461C1.62744 3.37972 1.75247 3.41146 1.88005 3.41801C2.00763 3.42456 2.13525 3.40578 2.25553 3.36277C2.37582 3.31975 2.4864 3.25334 2.5809 3.16737Z" fill="#333131"/>
<path d="M26.1285 17.4199H19.3543V15.4844C19.3543 15.293 19.2976 15.1059 19.1912 14.9467C19.0849 14.7876 18.9338 14.6635 18.7569 14.5903C18.5801 14.517 18.3855 14.4979 18.1978 14.5352C18.01 14.5725 17.8376 14.6647 17.7023 14.8001L12.8635 19.6388C12.7737 19.7286 12.7024 19.8353 12.6537 19.9527C12.6051 20.0702 12.5801 20.196 12.5801 20.3231C12.5801 20.4502 12.6051 20.576 12.6537 20.6934C12.7024 20.8109 12.7737 20.9175 12.8635 21.0074L17.7023 25.8461C17.8376 25.9815 18.01 26.0736 18.1978 26.111C18.3855 26.1483 18.5801 26.1292 18.7569 26.0559C18.9338 25.9827 19.0849 25.8586 19.1912 25.6995C19.2976 25.5403 19.3543 25.3532 19.3543 25.1618V23.2263H26.1285C26.3852 23.2263 26.6313 23.1244 26.8128 22.9429C26.9943 22.7614 27.0963 22.5152 27.0963 22.2586V18.3876C27.0963 18.1309 26.9943 17.8848 26.8128 17.7033C26.6313 17.5218 26.3852 17.4199 26.1285 17.4199ZM25.1608 21.2908H18.3866C18.1299 21.2908 17.8838 21.3928 17.7023 21.5743C17.5208 21.7558 17.4188 22.0019 17.4188 22.2586V22.8256L14.9165 20.3231L17.4188 17.8206V18.3876C17.4188 18.6443 17.5208 18.8904 17.7023 19.0719C17.8838 19.2534 18.1299 19.3554 18.3866 19.3554H25.1608V21.2908Z" fill="#333131"/>
<path d="M26.1285 40.645H19.3543V38.7095C19.3543 38.5181 19.2976 38.331 19.1912 38.1718C19.0849 38.0127 18.9338 37.8886 18.7569 37.8154C18.5801 37.7421 18.3855 37.723 18.1978 37.7603C18.01 37.7976 17.8376 37.8898 17.7023 38.0252L12.8635 42.8639C12.7737 42.9537 12.7024 43.0604 12.6537 43.1778C12.6051 43.2953 12.5801 43.4211 12.5801 43.5482C12.5801 43.6753 12.6051 43.8011 12.6537 43.9185C12.7024 44.036 12.7737 44.1426 12.8635 44.2325L17.7023 49.0712C17.8376 49.2066 18.01 49.2987 18.1978 49.3361C18.3855 49.3734 18.5801 49.3543 18.7569 49.281C18.9338 49.2078 19.0849 49.0837 19.1912 48.9246C19.2976 48.7654 19.3543 48.5783 19.3543 48.3869V46.4514H26.1285C26.3852 46.4514 26.6313 46.3495 26.8128 46.168C26.9943 45.9865 27.0963 45.7403 27.0963 45.4837V41.6127C27.0963 41.356 26.9943 41.1099 26.8128 40.9284C26.6313 40.7469 26.3852 40.645 26.1285 40.645ZM25.1608 44.5159H18.3866C18.1299 44.5159 17.8838 44.6179 17.7023 44.7994C17.5208 44.9809 17.4188 45.227 17.4188 45.4837V46.0507L14.9165 43.5482L17.4188 41.0457V41.6127C17.4188 41.8694 17.5208 42.1155 17.7023 42.297C17.8838 42.4785 18.1299 42.5804 18.3866 42.5804H25.1608V44.5159Z" fill="#333131"/>
</svg>
