<svg width="244" height="63" viewBox="0 0 244 63" fill="none" xmlns="http://www.w3.org/2000/svg">
<g clip-path="url(#clip0)">
<path d="M49.9294 56.6427H8.71783C8.17296 56.6427 7.72717 56.1939 7.72717 55.6454V24.5319C7.72717 23.9834 8.17296 23.5346 8.71783 23.5346C9.26269 23.5346 9.70849 23.9834 9.70849 24.5319V54.6482H48.9387V22.9363H22.6366C22.0918 22.9363 21.646 22.4875 21.646 21.9391C21.646 21.3906 22.0918 20.9418 22.6366 20.9418H49.9541C50.499 20.9418 50.9448 21.3906 50.9448 21.9391V55.6454C50.92 56.1939 50.4742 56.6427 49.9294 56.6427Z" fill="white"/>
<path d="M0.990656 22.9363C0.643924 22.9363 0.297193 22.7618 0.123827 22.4377C-0.148605 21.9391 0.0247609 21.3407 0.495325 21.0665L28.853 4.98614C29.1502 4.81163 29.5217 4.81163 29.8437 4.98614L57.6565 21.0665C58.1271 21.3407 58.3004 21.9391 58.028 22.4377C57.7556 22.9113 57.1612 23.0859 56.6658 22.8116L29.3236 7.00553L1.48599 22.7867C1.31262 22.8864 1.16402 22.9363 0.990656 22.9363Z" fill="white"/>
<path d="M8.71783 14.8837C8.17296 14.8837 7.72717 14.4349 7.72717 13.8864V0.99723C7.72717 0.448753 8.17296 0 8.71783 0C9.26269 0 9.70849 0.448753 9.70849 0.99723V13.8864C9.70849 14.4349 9.26269 14.8837 8.71783 14.8837Z" fill="white"/>
<path d="M77.5936 38.7673C77.5936 38.867 77.5688 38.9668 77.4945 39.0416C77.4202 39.1163 77.3212 39.1911 77.1726 39.241C77.024 39.2909 76.8011 39.3407 76.5534 39.3657C76.3057 39.3906 75.959 39.4155 75.5627 39.4155C75.1665 39.4155 74.8445 39.3906 74.5721 39.3657C74.2996 39.3407 74.1015 39.2909 73.9529 39.241C73.8043 39.1911 73.6805 39.1163 73.6309 39.0416C73.5566 38.9668 73.5319 38.867 73.5319 38.7673V19.7701C73.5319 19.6704 73.5566 19.5706 73.6309 19.4958C73.7052 19.4211 73.8043 19.3463 73.9777 19.2964C74.1263 19.2465 74.3492 19.1967 74.5968 19.1717C74.8445 19.1468 75.1665 19.1219 75.5627 19.1219C75.959 19.1219 76.281 19.1468 76.5534 19.1717C76.8011 19.1967 77.024 19.2465 77.1726 19.2964C77.3212 19.3463 77.445 19.4211 77.4945 19.4958C77.5688 19.5706 77.5936 19.6704 77.5936 19.7701V38.7673Z" fill="white"/>
<path d="M94.8559 38.7922C94.8559 38.892 94.8311 38.9917 94.7568 39.0665C94.6825 39.1413 94.5834 39.2161 94.4596 39.2659C94.311 39.3158 94.1129 39.3657 93.8652 39.3906C93.6175 39.4155 93.2956 39.4404 92.9241 39.4404C92.5526 39.4404 92.2306 39.4155 91.983 39.3906C91.7353 39.3657 91.5372 39.3158 91.3886 39.2659C91.24 39.2161 91.1409 39.1413 91.0914 39.0665C91.0418 38.9917 90.9923 38.892 90.9923 38.7922V30.8892C90.9923 30.2161 90.9428 29.6925 90.8437 29.2936C90.7446 28.9197 90.596 28.5706 90.4227 28.2964C90.2493 28.0222 90.0016 27.7978 89.7044 27.6482C89.4072 27.4986 89.0605 27.4238 88.689 27.4238C88.1937 27.4238 87.6983 27.5983 87.203 27.9723C86.7077 28.3463 86.1628 28.8698 85.618 29.5679V38.7673C85.618 38.867 85.5932 38.9668 85.5189 39.0416C85.4693 39.1163 85.3455 39.1911 85.1969 39.241C85.0483 39.2909 84.8502 39.3407 84.6025 39.3656C84.3549 39.3906 84.0329 39.4155 83.6614 39.4155C83.2899 39.4155 82.9679 39.3906 82.7203 39.3656C82.4726 39.3407 82.2745 39.2909 82.1259 39.241C81.9773 39.1911 81.8782 39.1163 81.8039 39.0416C81.7296 38.9668 81.7048 38.867 81.7048 38.7673V24.9307C81.7048 24.831 81.7296 24.7313 81.7791 24.6565C81.8287 24.5817 81.9277 24.5069 82.0516 24.4571C82.1754 24.4072 82.3488 24.3573 82.5717 24.3324C82.7946 24.3075 83.0422 24.2825 83.3642 24.2825C83.6862 24.2825 83.9586 24.3075 84.1815 24.3324C84.4044 24.3573 84.553 24.4072 84.6768 24.4571C84.8007 24.5069 84.875 24.5817 84.9245 24.6565C84.974 24.7313 84.9988 24.831 84.9988 24.9307V26.5263C85.7666 25.7036 86.5343 25.0803 87.3268 24.6565C88.1194 24.2327 88.9367 24.0332 89.7787 24.0332C90.7199 24.0332 91.5124 24.1828 92.1563 24.5069C92.8003 24.8061 93.3203 25.2299 93.7166 25.7784C94.1129 26.3019 94.4101 26.9252 94.5834 27.6482C94.7568 28.3712 94.8559 29.2188 94.8559 30.2161V38.7922Z" fill="white"/>
<path d="M106.521 37.4211C106.521 37.8698 106.496 38.2188 106.447 38.4682C106.397 38.7175 106.323 38.892 106.224 38.9917C106.125 39.0914 106.001 39.1662 105.803 39.2659C105.605 39.3657 105.406 39.4155 105.159 39.4654C104.911 39.5152 104.663 39.5651 104.366 39.59C104.094 39.615 103.797 39.6399 103.499 39.6399C102.732 39.6399 102.063 39.5402 101.493 39.3407C100.924 39.1413 100.453 38.8421 100.082 38.4432C99.7101 38.0443 99.4377 37.5208 99.2643 36.8975C99.0909 36.2742 98.9919 35.5513 98.9919 34.7036V27.5983H97.3325C97.1344 27.5983 96.9858 27.4737 96.8867 27.2244C96.7877 26.9751 96.7381 26.5762 96.7381 26.0028C96.7381 25.7036 96.7629 25.4543 96.7877 25.2299C96.8124 25.0305 96.862 24.856 96.9115 24.7313C96.961 24.6067 97.0353 24.5319 97.1096 24.482C97.1839 24.4321 97.283 24.4072 97.3821 24.4072H99.0166V21.3158C99.0166 21.2161 99.0414 21.1164 99.091 21.0416C99.1405 20.9668 99.2395 20.892 99.3881 20.8421C99.5367 20.7923 99.7349 20.7424 99.9825 20.7175C100.23 20.6925 100.552 20.6676 100.924 20.6676C101.295 20.6676 101.617 20.6925 101.865 20.7175C102.112 20.7424 102.311 20.7923 102.459 20.8421C102.608 20.892 102.707 20.9668 102.756 21.0416C102.806 21.1164 102.855 21.2161 102.855 21.3158V24.4072H105.852C105.951 24.4072 106.05 24.4321 106.125 24.482C106.199 24.5319 106.273 24.6316 106.323 24.7313C106.372 24.856 106.422 25.0055 106.447 25.2299C106.471 25.4294 106.496 25.6787 106.496 26.0028C106.496 26.5762 106.447 26.9751 106.348 27.2244C106.248 27.4737 106.1 27.5983 105.902 27.5983H102.905V34.1053C102.905 34.8532 103.029 35.4266 103.252 35.8006C103.499 36.1745 103.92 36.374 104.515 36.374C104.713 36.374 104.911 36.349 105.06 36.3241C105.233 36.2992 105.382 36.2493 105.505 36.1995C105.629 36.1496 105.753 36.0997 105.827 36.0748C105.902 36.0499 106.001 36.0249 106.075 36.0249C106.125 36.0249 106.199 36.0499 106.248 36.0748C106.298 36.0997 106.348 36.1745 106.372 36.2992C106.397 36.3989 106.422 36.5485 106.447 36.7479C106.521 36.8975 106.521 37.1219 106.521 37.4211Z" fill="white"/>
<path d="M121.653 31.4626C121.653 31.9363 121.554 32.2853 121.331 32.5097C121.108 32.7341 120.836 32.8587 120.464 32.8587H112.093C112.093 33.4571 112.168 33.9806 112.292 34.4543C112.44 34.928 112.663 35.3518 112.96 35.6759C113.257 36 113.654 36.2742 114.124 36.4487C114.595 36.6233 115.164 36.723 115.833 36.723C116.502 36.723 117.096 36.6731 117.616 36.5734C118.136 36.4737 118.582 36.374 118.954 36.2493C119.325 36.1246 119.647 36.0249 119.895 35.9252C120.143 35.8255 120.341 35.7756 120.489 35.7756C120.588 35.7756 120.663 35.8005 120.712 35.8255C120.786 35.8504 120.836 35.9252 120.861 36.0249C120.886 36.1247 120.935 36.2493 120.935 36.4238C120.96 36.5983 120.96 36.7978 120.96 37.072C120.96 37.2964 120.96 37.4958 120.935 37.6454C120.935 37.795 120.91 37.9446 120.886 38.0692C120.861 38.1939 120.836 38.2687 120.786 38.3684C120.737 38.4432 120.687 38.518 120.613 38.5928C120.539 38.6676 120.365 38.7673 120.068 38.892C119.771 39.0166 119.4 39.1413 118.929 39.2659C118.458 39.3906 117.938 39.4903 117.344 39.5651C116.749 39.6648 116.106 39.6897 115.437 39.6897C114.223 39.6897 113.134 39.5402 112.217 39.2161C111.301 38.9169 110.533 38.4432 109.914 37.795C109.295 37.1717 108.824 36.374 108.527 35.4017C108.23 34.4294 108.081 33.3075 108.081 32.0111C108.081 30.7895 108.23 29.6676 108.552 28.6704C108.874 27.6731 109.344 26.8504 109.939 26.1523C110.558 25.4543 111.276 24.9307 112.143 24.5817C113.01 24.2077 114 24.0332 115.09 24.0332C116.229 24.0332 117.22 24.2077 118.037 24.5568C118.855 24.9058 119.523 25.3795 120.043 25.9778C120.564 26.5762 120.96 27.2992 121.207 28.1219C121.455 28.9446 121.579 29.8421 121.579 30.8144V31.4626H121.653ZM117.889 30.3407C117.914 29.2438 117.691 28.3712 117.245 27.7479C116.774 27.1246 116.056 26.8005 115.065 26.8005C114.57 26.8005 114.149 26.9003 113.778 27.0748C113.406 27.2493 113.109 27.5235 112.861 27.8227C112.613 28.1468 112.44 28.5208 112.316 28.9446C112.192 29.3684 112.118 29.8421 112.093 30.3158H117.889V30.3407Z" fill="white"/>
<path d="M128.736 38.7923C128.736 38.892 128.712 38.9917 128.637 39.0665C128.588 39.1413 128.464 39.2161 128.315 39.2659C128.167 39.3158 127.969 39.3657 127.721 39.3906C127.473 39.4155 127.151 39.4405 126.78 39.4405C126.408 39.4405 126.086 39.4155 125.839 39.3906C125.591 39.3657 125.393 39.3158 125.244 39.2659C125.096 39.2161 124.997 39.1413 124.922 39.0665C124.848 38.9917 124.823 38.892 124.823 38.7923V18.374C124.823 18.2742 124.848 18.1745 124.922 18.0997C124.972 18.0249 125.096 17.9501 125.244 17.9003C125.393 17.8504 125.591 17.8006 125.839 17.7756C126.086 17.7507 126.408 17.7258 126.78 17.7258C127.151 17.7258 127.473 17.7507 127.721 17.7756C127.969 17.8006 128.167 17.8504 128.315 17.9003C128.464 17.9501 128.563 18.0249 128.637 18.0997C128.712 18.1745 128.736 18.2742 128.736 18.374V38.7923Z" fill="white"/>
<path d="M154.444 33.2826C154.444 34.0056 154.345 34.6538 154.147 35.2272C153.949 35.8006 153.676 36.3241 153.33 36.7729C152.983 37.2216 152.562 37.5956 152.091 37.9197C151.621 38.2438 151.076 38.4931 150.506 38.7175C149.937 38.9169 149.317 39.0665 148.674 39.1662C148.03 39.2659 147.287 39.3158 146.494 39.3158H141.194C140.847 39.3158 140.575 39.2161 140.327 39.0166C140.104 38.8172 139.981 38.4931 139.981 38.0194V20.518C139.981 20.0693 140.104 19.7452 140.327 19.5208C140.55 19.3213 140.847 19.2216 141.194 19.2216H146.197C147.41 19.2216 148.451 19.3213 149.318 19.5208C150.16 19.7202 150.878 20.0443 151.472 20.4682C152.042 20.892 152.488 21.4155 152.81 22.0637C153.107 22.7119 153.28 23.4598 153.28 24.3324C153.28 24.831 153.231 25.2798 153.107 25.7036C152.983 26.1274 152.81 26.5263 152.562 26.8754C152.314 27.2244 152.042 27.5485 151.695 27.7978C151.348 28.072 150.952 28.2964 150.506 28.446C151.076 28.5457 151.596 28.7202 152.067 28.9945C152.537 29.2438 152.958 29.5928 153.305 29.9917C153.652 30.3906 153.949 30.8892 154.147 31.4377C154.345 31.9862 154.444 32.6094 154.444 33.2826ZM149.194 24.831C149.194 24.4321 149.119 24.0582 149.02 23.7341C148.921 23.41 148.723 23.1357 148.475 22.9363C148.228 22.7119 147.906 22.5623 147.534 22.4377C147.163 22.313 146.667 22.2632 146.024 22.2632H143.968V27.4737H146.246C146.841 27.4737 147.311 27.3989 147.658 27.2743C148.005 27.1247 148.302 26.9502 148.525 26.7008C148.748 26.4515 148.921 26.1773 149.045 25.8532C149.144 25.5291 149.194 25.1801 149.194 24.831ZM150.234 33.4321C150.234 32.9585 150.16 32.5596 150.011 32.1856C149.862 31.8117 149.639 31.5125 149.342 31.2632C149.045 31.0139 148.674 30.8144 148.203 30.6898C147.732 30.5651 147.138 30.4903 146.395 30.4903H143.993V36.1995H146.915C147.485 36.1995 147.955 36.1496 148.352 36.0249C148.748 35.9003 149.07 35.7258 149.342 35.5014C149.615 35.277 149.838 34.9779 150.011 34.6288C150.16 34.2798 150.234 33.8809 150.234 33.4321Z" fill="white"/>
<path d="M170.518 38.7923C170.518 38.892 170.493 38.9917 170.443 39.0665C170.394 39.1413 170.295 39.2161 170.171 39.2659C170.047 39.3158 169.874 39.3657 169.651 39.3906C169.428 39.4155 169.18 39.4405 168.858 39.4405C168.512 39.4405 168.239 39.4155 168.041 39.3906C167.818 39.3657 167.67 39.3158 167.546 39.2659C167.422 39.2161 167.323 39.1413 167.273 39.0665C167.224 38.9917 167.199 38.892 167.199 38.7923V37.1967C166.431 38.0194 165.663 38.6427 164.871 39.0665C164.078 39.4903 163.261 39.6898 162.419 39.6898C161.478 39.6898 160.685 39.5402 160.041 39.2161C159.398 38.9169 158.877 38.4931 158.481 37.9446C158.085 37.3961 157.812 36.7729 157.639 36.0748C157.466 35.3767 157.391 34.4792 157.391 33.4322V24.9557C157.391 24.856 157.416 24.7562 157.466 24.6815C157.515 24.6067 157.614 24.5319 157.763 24.482C157.912 24.4321 158.11 24.3823 158.357 24.3574C158.605 24.3324 158.927 24.3075 159.298 24.3075C159.67 24.3075 159.992 24.3324 160.24 24.3574C160.487 24.3823 160.685 24.4321 160.834 24.482C160.983 24.5319 161.082 24.6067 161.156 24.6815C161.23 24.7562 161.255 24.856 161.255 24.9557V32.784C161.255 33.5069 161.305 34.0554 161.404 34.4543C161.503 34.8283 161.627 35.1773 161.825 35.4515C162.023 35.7258 162.246 35.9502 162.543 36.0997C162.84 36.2493 163.187 36.3241 163.558 36.3241C164.054 36.3241 164.549 36.1496 165.044 35.7756C165.54 35.4017 166.084 34.8781 166.629 34.1801V24.9308C166.629 24.831 166.654 24.7313 166.704 24.6565C166.753 24.5817 166.852 24.5069 167.001 24.4571C167.149 24.4072 167.348 24.3574 167.595 24.3324C167.843 24.3075 168.165 24.2826 168.536 24.2826C168.908 24.2826 169.23 24.3075 169.477 24.3324C169.725 24.3574 169.923 24.4072 170.072 24.4571C170.22 24.5069 170.32 24.5817 170.369 24.6565C170.443 24.7313 170.468 24.831 170.468 24.9308V38.7923H170.518Z" fill="white"/>
<path d="M178.592 20.2438C178.592 21.0416 178.443 21.5651 178.121 21.8643C177.799 22.1635 177.205 22.313 176.338 22.313C175.471 22.313 174.877 22.1635 174.579 21.8892C174.282 21.59 174.134 21.0665 174.134 20.3186C174.134 19.5208 174.282 18.9973 174.604 18.6732C174.926 18.374 175.52 18.2244 176.387 18.2244C177.254 18.2244 177.849 18.374 178.146 18.6732C178.443 18.9723 178.592 19.4959 178.592 20.2438ZM178.294 38.7923C178.294 38.892 178.27 38.9917 178.195 39.0665C178.121 39.1413 178.022 39.2161 177.873 39.266C177.725 39.3158 177.527 39.3657 177.279 39.3906C177.031 39.4155 176.709 39.4405 176.338 39.4405C175.966 39.4405 175.644 39.4155 175.397 39.3906C175.149 39.3657 174.951 39.3158 174.802 39.266C174.654 39.2161 174.555 39.1413 174.48 39.0665C174.431 38.9917 174.381 38.892 174.381 38.7923V24.9806C174.381 24.8809 174.406 24.7812 174.48 24.7064C174.555 24.6316 174.654 24.5568 174.802 24.5069C174.951 24.4571 175.149 24.4072 175.397 24.3823C175.644 24.3574 175.966 24.3324 176.338 24.3324C176.709 24.3324 177.031 24.3574 177.279 24.3823C177.527 24.4072 177.725 24.4571 177.873 24.5069C178.022 24.5568 178.121 24.6316 178.195 24.7064C178.245 24.7812 178.294 24.8809 178.294 24.9806V38.7923Z" fill="white"/>
<path d="M186.071 38.7923C186.071 38.892 186.046 38.9917 185.972 39.0665C185.898 39.1413 185.799 39.2161 185.65 39.2659C185.501 39.3158 185.303 39.3657 185.056 39.3906C184.808 39.4155 184.486 39.4405 184.114 39.4405C183.743 39.4405 183.421 39.4155 183.173 39.3906C182.926 39.3657 182.728 39.3158 182.579 39.2659C182.43 39.2161 182.331 39.1413 182.257 39.0665C182.207 38.9917 182.158 38.892 182.158 38.7923V18.374C182.158 18.2742 182.183 18.1745 182.257 18.0997C182.331 18.0249 182.43 17.9501 182.579 17.9003C182.728 17.8504 182.926 17.8006 183.173 17.7756C183.421 17.7507 183.743 17.7258 184.114 17.7258C184.486 17.7258 184.808 17.7507 185.056 17.7756C185.303 17.8006 185.501 17.8504 185.65 17.9003C185.799 17.9501 185.898 18.0249 185.972 18.0997C186.022 18.1745 186.071 18.2742 186.071 18.374V38.7923Z" fill="white"/>
<path d="M202.987 38.7923C202.987 38.9169 202.962 38.9917 202.912 39.0914C202.863 39.1662 202.764 39.241 202.64 39.2909C202.516 39.3407 202.343 39.3906 202.145 39.3906C201.922 39.4155 201.674 39.4155 201.377 39.4155C201.055 39.4155 200.782 39.4155 200.584 39.3906C200.386 39.3657 200.213 39.3407 200.089 39.2909C199.965 39.241 199.866 39.1662 199.816 39.0914C199.767 39.0166 199.742 38.9169 199.742 38.7923V37.2465C199.024 38.0194 198.281 38.6177 197.513 39.0416C196.745 39.4654 195.879 39.6898 194.937 39.6898C193.897 39.6898 193.006 39.4903 192.287 39.0665C191.569 38.6676 190.975 38.0942 190.504 37.4211C190.058 36.723 189.712 35.9252 189.514 35.0028C189.315 34.0803 189.216 33.108 189.216 32.0859C189.216 30.8643 189.34 29.7424 189.613 28.7701C189.885 27.7978 190.257 26.9501 190.752 26.2521C191.247 25.554 191.891 25.0305 192.634 24.6565C193.377 24.2826 194.244 24.108 195.235 24.108C196.002 24.108 196.696 24.2576 197.34 24.5817C197.959 24.9058 198.578 25.3546 199.197 25.9778V18.4238C199.197 18.3241 199.222 18.2244 199.272 18.1496C199.321 18.0748 199.42 18 199.569 17.9501C199.717 17.9003 199.916 17.8504 200.163 17.8255C200.411 17.8006 200.733 17.7756 201.104 17.7756C201.476 17.7756 201.798 17.8006 202.045 17.8255C202.293 17.8504 202.491 17.9003 202.64 17.9501C202.788 18 202.888 18.0748 202.937 18.1496C203.011 18.2244 203.036 18.3241 203.036 18.4238V38.7923H202.987ZM199.123 29.5429C198.578 28.8449 198.033 28.2964 197.538 27.9224C197.018 27.5485 196.498 27.374 195.953 27.374C195.458 27.374 195.012 27.4986 194.64 27.7479C194.269 27.9972 193.972 28.3463 193.749 28.7701C193.526 29.1939 193.352 29.6676 193.253 30.1911C193.154 30.7147 193.08 31.2382 193.08 31.7867C193.08 32.3601 193.13 32.9335 193.229 33.482C193.328 34.0305 193.476 34.5291 193.674 34.9529C193.897 35.3767 194.17 35.7258 194.516 35.9751C194.863 36.2244 195.309 36.374 195.854 36.374C196.126 36.374 196.374 36.3241 196.622 36.2493C196.869 36.1745 197.142 36.0499 197.389 35.8754C197.662 35.7008 197.909 35.4765 198.207 35.1773C198.479 34.9031 198.776 34.554 199.123 34.1302V29.5429Z" fill="white"/>
<path d="M211.06 20.2438C211.06 21.0416 210.912 21.5651 210.59 21.8643C210.268 22.1635 209.674 22.313 208.807 22.313C207.94 22.313 207.345 22.1635 207.048 21.8892C206.751 21.59 206.602 21.0665 206.602 20.3186C206.602 19.5208 206.751 18.9973 207.073 18.6732C207.395 18.374 207.989 18.2244 208.856 18.2244C209.723 18.2244 210.317 18.374 210.615 18.6732C210.912 18.9723 211.06 19.4959 211.06 20.2438ZM210.788 38.7923C210.788 38.892 210.763 38.9917 210.689 39.0665C210.615 39.1413 210.516 39.2161 210.367 39.266C210.218 39.3158 210.02 39.3657 209.773 39.3906C209.525 39.4155 209.203 39.4405 208.831 39.4405C208.46 39.4405 208.138 39.4155 207.89 39.3906C207.643 39.3657 207.445 39.3158 207.296 39.266C207.147 39.2161 207.048 39.1413 206.974 39.0665C206.924 38.9917 206.875 38.892 206.875 38.7923V24.9806C206.875 24.8809 206.9 24.7812 206.974 24.7064C207.048 24.6316 207.147 24.5568 207.296 24.5069C207.445 24.4571 207.643 24.4072 207.89 24.3823C208.138 24.3574 208.46 24.3324 208.831 24.3324C209.203 24.3324 209.525 24.3574 209.773 24.3823C210.02 24.4072 210.218 24.4571 210.367 24.5069C210.516 24.5568 210.615 24.6316 210.689 24.7064C210.739 24.7812 210.788 24.8809 210.788 24.9806V38.7923Z" fill="white"/>
<path d="M227.803 38.7922C227.803 38.892 227.778 38.9917 227.704 39.0665C227.629 39.1413 227.53 39.2161 227.406 39.2659C227.258 39.3158 227.06 39.3657 226.812 39.3906C226.564 39.4155 226.242 39.4404 225.871 39.4404C225.499 39.4404 225.177 39.4155 224.93 39.3906C224.682 39.3657 224.484 39.3158 224.335 39.2659C224.187 39.2161 224.088 39.1413 224.038 39.0665C223.989 38.9917 223.939 38.892 223.939 38.7922V30.8892C223.939 30.2161 223.89 29.6925 223.79 29.2936C223.691 28.9197 223.543 28.5706 223.369 28.2964C223.196 28.0222 222.948 27.7978 222.651 27.6482C222.354 27.4986 222.007 27.4238 221.636 27.4238C221.14 27.4238 220.645 27.5983 220.15 27.9723C219.654 28.3463 219.11 28.8698 218.565 29.5679V38.7673C218.565 38.867 218.54 38.9668 218.466 39.0416C218.391 39.1163 218.292 39.1911 218.144 39.241C217.995 39.2909 217.797 39.3407 217.549 39.3656C217.302 39.3906 216.98 39.4155 216.608 39.4155C216.237 39.4155 215.915 39.3906 215.667 39.3656C215.419 39.3407 215.221 39.2909 215.073 39.241C214.924 39.1911 214.825 39.1163 214.751 39.0416C214.701 38.9668 214.652 38.867 214.652 38.7673V24.9307C214.652 24.831 214.676 24.7313 214.726 24.6565C214.775 24.5817 214.875 24.5069 214.998 24.4571C215.122 24.4072 215.296 24.3573 215.518 24.3324C215.741 24.3075 215.989 24.2825 216.311 24.2825C216.633 24.2825 216.905 24.3075 217.128 24.3324C217.351 24.3573 217.5 24.4072 217.624 24.4571C217.747 24.5069 217.822 24.5817 217.871 24.6565C217.921 24.7313 217.946 24.831 217.946 24.9307V26.5263C218.713 25.7036 219.481 25.0803 220.274 24.6565C221.066 24.2327 221.883 24.0332 222.726 24.0332C223.667 24.0332 224.459 24.1828 225.103 24.5069C225.747 24.8061 226.267 25.2299 226.663 25.7784C227.06 26.3019 227.357 26.9252 227.53 27.6482C227.704 28.3712 227.803 29.2188 227.803 30.2161V38.7922Z" fill="white"/>
<path d="M244 25.903C244 26.4017 243.95 26.7756 243.827 27C243.703 27.2493 243.579 27.349 243.406 27.349H241.796C242.019 27.5983 242.192 27.8726 242.291 28.1967C242.39 28.5208 242.44 28.8449 242.44 29.1939C242.44 29.9917 242.316 30.7147 242.043 31.3379C241.771 31.9612 241.399 32.4848 240.904 32.9335C240.409 33.3573 239.814 33.6814 239.096 33.9058C238.403 34.1302 237.61 34.2299 236.743 34.2299C236.298 34.2299 235.877 34.1801 235.48 34.0554C235.084 33.9557 234.762 33.831 234.564 33.6814C234.44 33.8061 234.341 33.9806 234.242 34.1551C234.143 34.3296 234.093 34.554 234.093 34.7784C234.093 35.0776 234.217 35.3269 234.49 35.5263C234.762 35.7258 235.109 35.8255 235.604 35.8504L238.948 35.9751C239.74 36 240.434 36.1246 241.028 36.2992C241.647 36.4986 242.142 36.7479 242.564 37.0969C242.985 37.446 243.307 37.8698 243.529 38.3435C243.752 38.8421 243.851 39.3906 243.851 40.0138C243.851 40.687 243.703 41.3352 243.406 41.9584C243.108 42.5568 242.663 43.0803 242.068 43.5291C241.474 43.9778 240.731 44.3269 239.814 44.5762C238.923 44.8255 237.858 44.9751 236.669 44.9751C235.505 44.9751 234.49 44.8753 233.672 44.7008C232.855 44.5263 232.162 44.2521 231.641 43.928C231.121 43.6039 230.725 43.205 230.477 42.7313C230.23 42.2825 230.106 41.759 230.106 41.2105C230.106 40.8615 230.155 40.5374 230.23 40.2382C230.329 39.939 230.453 39.6399 230.626 39.3407C230.799 39.0415 230.998 38.7922 231.245 38.518C231.493 38.2687 231.765 38.0194 232.087 37.7701C231.641 37.5208 231.295 37.1967 231.072 36.7978C230.824 36.3989 230.7 35.9501 230.7 35.4515C230.7 34.8282 230.849 34.2798 231.121 33.7812C231.394 33.2825 231.765 32.8338 232.211 32.41C231.84 32.036 231.567 31.6122 231.344 31.1136C231.121 30.615 231.022 29.9668 231.022 29.2188C231.022 28.421 231.171 27.6981 231.443 27.0499C231.716 26.4017 232.112 25.8781 232.632 25.4294C233.127 24.9806 233.747 24.6565 234.44 24.4321C235.134 24.2078 235.901 24.0831 236.743 24.0831C237.164 24.0831 237.585 24.108 237.982 24.1579C238.378 24.2078 238.749 24.2825 239.096 24.3823H243.455C243.628 24.3823 243.777 24.5069 243.876 24.7313C243.95 24.9806 244 25.3546 244 25.903ZM239.938 40.2382C239.938 39.7645 239.765 39.4155 239.393 39.1662C239.022 38.9169 238.502 38.7922 237.858 38.7673L235.109 38.6925C234.836 38.892 234.638 39.0665 234.465 39.2659C234.316 39.4404 234.168 39.615 234.069 39.7895C233.97 39.964 233.895 40.1136 233.87 40.2632C233.846 40.4127 233.821 40.5872 233.821 40.7368C233.821 41.2604 234.069 41.6593 234.589 41.9086C235.109 42.1828 235.852 42.3075 236.793 42.3075C237.387 42.3075 237.883 42.2576 238.279 42.133C238.675 42.0083 238.997 41.8587 239.245 41.6593C239.492 41.4598 239.666 41.2354 239.765 41.0111C239.889 40.7618 239.938 40.4875 239.938 40.2382ZM239.022 29.169C239.022 28.421 238.824 27.8476 238.403 27.4238C237.982 27 237.412 26.8006 236.669 26.8006C236.298 26.8006 235.951 26.8753 235.678 27C235.381 27.1247 235.158 27.2992 234.96 27.5235C234.762 27.7479 234.638 27.9972 234.539 28.2964C234.44 28.5956 234.391 28.8947 234.391 29.2188C234.391 29.9169 234.589 30.4903 235.01 30.8892C235.431 31.2881 236 31.5125 236.719 31.5125C237.115 31.5125 237.437 31.4626 237.734 31.3379C238.031 31.2133 238.254 31.0388 238.452 30.8144C238.65 30.59 238.774 30.3407 238.873 30.0665C238.972 29.7922 239.022 29.4931 239.022 29.169Z" fill="white"/>
<path d="M100.305 57.7645L101.32 57.9141C101.221 58.687 100.924 59.3103 100.478 59.7341C100.032 60.1828 99.4624 60.3823 98.7937 60.3823C97.9764 60.3823 97.3078 60.0831 96.7877 59.4848C96.2676 58.8864 96.0199 58.0139 96.0199 56.892C96.0199 56.169 96.119 55.5208 96.3419 54.9723C96.5648 54.4238 96.8867 54.0249 97.3325 53.7507C97.7783 53.4765 98.2489 53.3518 98.769 53.3518C99.4377 53.3518 99.9578 53.5263 100.379 53.9003C100.8 54.2742 101.072 54.7978 101.171 55.4959L100.181 55.6704C100.082 55.2216 99.9082 54.8726 99.6853 54.6482C99.4377 54.4238 99.1405 54.2992 98.8185 54.2992C98.2984 54.2992 97.8774 54.4986 97.5554 54.9224C97.2335 55.3463 97.0601 55.9945 97.0601 56.892C97.0601 57.7895 97.2087 58.4626 97.5306 58.8864C97.8526 59.3103 98.2489 59.5097 98.7442 59.5097C99.1405 59.5097 99.4872 59.3601 99.7596 59.0859C100.057 58.7618 100.23 58.338 100.305 57.7645Z" fill="white"/>
<path d="M102.212 53.4764H103.227V58.6371L106.075 53.4764H107.19V60.2576H106.174V55.1219L103.326 60.2576H102.212V53.4764Z" fill="white"/>
<path d="M112.688 57.7645L113.703 57.9141C113.604 58.687 113.307 59.3103 112.861 59.7341C112.415 60.1828 111.846 60.3823 111.177 60.3823C110.36 60.3823 109.691 60.0831 109.171 59.4848C108.651 58.8864 108.403 58.0139 108.403 56.892C108.403 56.169 108.502 55.5208 108.725 54.9723C108.948 54.4238 109.27 54.0249 109.716 53.7507C110.162 53.4765 110.632 53.3518 111.152 53.3518C111.821 53.3518 112.341 53.5263 112.762 53.9003C113.183 54.2742 113.456 54.7978 113.555 55.4959L112.564 55.6704C112.465 55.2216 112.292 54.8726 112.069 54.6482C111.821 54.4238 111.524 54.2992 111.202 54.2992C110.682 54.2992 110.261 54.4986 109.939 54.9224C109.617 55.3463 109.443 55.9945 109.443 56.892C109.443 57.7895 109.592 58.4626 109.914 58.8864C110.236 59.3103 110.632 59.5097 111.127 59.5097C111.524 59.5097 111.87 59.3601 112.143 59.0859C112.415 58.8116 112.613 58.338 112.688 57.7645Z" fill="white"/>
<path d="M114.025 53.4764H118.954V54.4238H116.997V60.2327H115.982V54.4238H114.025V53.4764Z" fill="white"/>
<path d="M123.932 58.0637L124.997 58.2133C124.823 58.9114 124.526 59.4349 124.056 59.8338C123.585 60.2327 123.015 60.4072 122.322 60.4072C121.43 60.4072 120.737 60.108 120.217 59.4848C119.697 58.8864 119.449 58.0139 119.449 56.9169C119.449 55.7701 119.721 54.8975 120.242 54.2742C120.762 53.651 121.455 53.3269 122.272 53.3269C123.09 53.3269 123.734 53.626 124.254 54.2493C124.774 54.8726 125.021 55.7452 125.021 56.8421C125.021 56.9169 125.021 57.0166 125.021 57.1413H120.514C120.564 57.8892 120.737 58.4626 121.084 58.8615C121.43 59.2604 121.851 59.4598 122.347 59.4598C122.718 59.4598 123.04 59.3601 123.313 59.1357C123.585 58.9114 123.783 58.5623 123.932 58.0637ZM120.564 56.2188H123.957C123.907 55.6454 123.783 55.2216 123.56 54.9474C123.238 54.4986 122.817 54.2742 122.297 54.2742C121.827 54.2742 121.43 54.4488 121.108 54.7978C120.786 55.1468 120.613 55.6205 120.564 56.2188Z" fill="white"/>
<path d="M126.309 53.4764H127.919L129.504 58.8864L131.263 53.4764H132.749V60.2576H131.733V54.7978L129.95 60.2576H129.034L127.35 54.5485V60.2576H126.309V53.4764Z" fill="white"/>
<path d="M134.359 53.4764H135.374V56.1191H136.687C137.529 56.1191 138.197 56.2936 138.643 56.6676C139.089 57.0415 139.337 57.5402 139.337 58.1884C139.337 58.7618 139.138 59.2354 138.767 59.6343C138.395 60.0332 137.776 60.2327 136.934 60.2327H134.359V53.4764ZM135.374 59.3102H136.464C137.108 59.3102 137.578 59.2105 137.851 59.036C138.123 58.8615 138.272 58.5872 138.272 58.1884C138.272 57.8892 138.173 57.6399 137.974 57.4155C137.776 57.1911 137.306 57.0665 136.612 57.0665H135.399V59.3102H135.374ZM140.104 53.4764H141.12V60.2576H140.104V53.4764Z" fill="white"/>
<path d="M145.924 62.8504L145.801 61.7784C146.024 61.8532 146.222 61.8781 146.395 61.8781C146.618 61.8781 146.816 61.8283 146.94 61.7535C147.064 61.6787 147.188 61.554 147.287 61.4044C147.361 61.2798 147.46 61.0056 147.609 60.5568C147.633 60.482 147.658 60.4072 147.708 60.2826L145.404 53.5014H146.519L147.782 57.4155C147.955 57.9141 148.104 58.4377 148.228 58.9862C148.352 58.4626 148.475 57.9391 148.649 57.4405L149.937 53.5014H150.952L148.649 60.3823C148.401 61.1302 148.203 61.6288 148.079 61.928C147.906 62.302 147.683 62.5762 147.46 62.7507C147.212 62.9252 146.94 63.0249 146.618 63.0249C146.395 63 146.172 62.9502 145.924 62.8504Z" fill="white"/>
<path d="M151.72 53.4764H153.33L154.915 58.8864L156.673 53.4764H158.159V60.2576H157.144V54.7978L155.361 60.2576H154.444L152.76 54.5485V60.2576H151.745V53.4764H151.72Z" fill="white"/>
<path d="M159.719 53.4764H160.735V56.2936H163.583V53.4764H164.598V60.2576H163.583V57.2659H160.735V60.2576H159.719V53.4764Z" fill="white"/>
<path d="M165.787 56.867C165.787 55.6205 166.109 54.6731 166.728 54.0748C167.248 53.5762 167.892 53.3269 168.635 53.3269C169.477 53.3269 170.146 53.626 170.666 54.2493C171.186 54.8726 171.459 55.6953 171.459 56.7673C171.459 57.6399 171.335 58.313 171.112 58.8116C170.889 59.3103 170.542 59.7091 170.097 59.9834C169.651 60.2576 169.155 60.4072 168.635 60.4072C167.793 60.4072 167.1 60.108 166.58 59.4848C166.06 58.8864 165.787 58.0139 165.787 56.867ZM166.852 56.867C166.852 57.7396 167.026 58.3878 167.348 58.8116C167.694 59.2355 168.115 59.4598 168.635 59.4598C169.155 59.4598 169.577 59.2355 169.898 58.8116C170.245 58.3878 170.394 57.7147 170.394 56.8172C170.394 55.9695 170.22 55.3463 169.874 54.9224C169.527 54.4986 169.106 54.2742 168.611 54.2742C168.091 54.2742 167.669 54.4986 167.323 54.9224C167.001 55.3463 166.852 55.9945 166.852 56.867Z" fill="white"/>
<path d="M172.672 53.4764H176.164V54.4238H173.713V60.2327H172.697V53.4764H172.672Z" fill="white"/>
<path d="M176.288 56.867C176.288 55.6205 176.61 54.6731 177.229 54.0748C177.749 53.5762 178.393 53.3269 179.136 53.3269C179.978 53.3269 180.647 53.626 181.167 54.2493C181.687 54.8726 181.96 55.6953 181.96 56.7673C181.96 57.6399 181.836 58.313 181.613 58.8116C181.39 59.3103 181.043 59.7091 180.598 59.9834C180.152 60.2576 179.657 60.4072 179.136 60.4072C178.294 60.4072 177.601 60.108 177.081 59.4848C176.561 58.8864 176.288 58.0139 176.288 56.867ZM177.353 56.867C177.353 57.7396 177.527 58.3878 177.849 58.8116C178.195 59.2355 178.616 59.4598 179.136 59.4598C179.657 59.4598 180.078 59.2355 180.4 58.8116C180.746 58.3878 180.895 57.7147 180.895 56.8172C180.895 55.9695 180.721 55.3463 180.375 54.9224C180.028 54.4986 179.607 54.2742 179.112 54.2742C178.592 54.2742 178.171 54.4986 177.824 54.9224C177.527 55.3463 177.353 55.9945 177.353 56.867Z" fill="white"/>
<path d="M187.235 53.4764H191.445V59.3102H192.089V62.1773H191.247V60.2576H186.492V62.1773H185.65V59.3102H186.195C186.913 58.2133 187.26 56.2687 187.235 53.4764ZM188.077 54.4238C188.003 56.6177 187.706 58.2382 187.161 59.3102H190.43V54.4238H188.077Z" fill="white"/>
<path d="M192.857 56.867C192.857 55.6205 193.179 54.6731 193.798 54.0748C194.318 53.5762 194.962 53.3269 195.705 53.3269C196.547 53.3269 197.216 53.626 197.736 54.2493C198.256 54.8726 198.529 55.6953 198.529 56.7673C198.529 57.6399 198.405 58.313 198.182 58.8116C197.959 59.3103 197.612 59.7091 197.166 59.9834C196.721 60.2576 196.225 60.4072 195.705 60.4072C194.863 60.4072 194.17 60.108 193.65 59.4848C193.105 58.8864 192.857 58.0139 192.857 56.867ZM193.922 56.867C193.922 57.7396 194.095 58.3878 194.417 58.8116C194.764 59.2355 195.185 59.4598 195.705 59.4598C196.225 59.4598 196.646 59.2355 196.968 58.8116C197.315 58.3878 197.464 57.7147 197.464 56.8172C197.464 55.9695 197.29 55.3463 196.944 54.9224C196.597 54.4986 196.176 54.2742 195.68 54.2742C195.16 54.2742 194.739 54.4986 194.393 54.9224C194.071 55.3463 193.922 55.9945 193.922 56.867Z" fill="white"/>
<path d="M199.767 53.4764H201.377L202.962 58.8864L204.72 53.4764H206.206V60.2576H205.191V54.7978L203.408 60.2576H202.491L200.807 54.5485V60.2576H199.792V53.4764H199.767Z" fill="white"/>
<path d="M211.729 59.41C211.358 59.759 210.986 60.0332 210.639 60.1828C210.293 60.3324 209.921 60.4072 209.5 60.4072C208.832 60.4072 208.311 60.2327 207.965 59.8587C207.618 59.4848 207.42 59.036 207.42 58.4626C207.42 58.1385 207.494 57.8393 207.618 57.5651C207.742 57.2909 207.94 57.0665 208.138 56.9169C208.336 56.7673 208.609 56.6177 208.881 56.5429C209.079 56.4931 209.376 56.4183 209.797 56.3684C210.615 56.2687 211.234 56.1191 211.63 55.9695C211.63 55.8199 211.63 55.7202 211.63 55.6704C211.63 55.1967 211.531 54.8726 211.333 54.6731C211.06 54.4238 210.689 54.2742 210.169 54.2742C209.674 54.2742 209.327 54.374 209.104 54.5485C208.881 54.7479 208.708 55.072 208.584 55.5457L207.568 55.3961C207.667 54.9224 207.816 54.5235 208.014 54.2244C208.212 53.9252 208.534 53.7008 208.931 53.5512C209.327 53.4017 209.773 53.3019 210.317 53.3019C210.838 53.3019 211.259 53.3767 211.581 53.5014C211.903 53.626 212.15 53.8006 212.299 54.0249C212.447 54.2493 212.546 54.4986 212.621 54.7978C212.646 54.9972 212.67 55.3463 212.67 55.8449V57.3657C212.67 58.4377 212.695 59.1108 212.745 59.385C212.794 59.6593 212.868 59.9335 212.992 60.2078H211.927C211.828 60.0083 211.754 59.7341 211.729 59.41ZM211.63 56.8421C211.259 57.0166 210.689 57.1662 209.946 57.2659C209.525 57.3407 209.228 57.4155 209.054 57.4903C208.881 57.5651 208.732 57.6898 208.658 57.8643C208.584 58.0388 208.51 58.2133 208.51 58.4127C208.51 58.7119 208.609 58.9862 208.831 59.1856C209.03 59.385 209.352 59.4848 209.748 59.4848C210.144 59.4848 210.491 59.385 210.813 59.1856C211.11 58.9862 211.358 58.7368 211.482 58.3878C211.581 58.1385 211.655 57.7396 211.655 57.241V56.8421H211.63Z" fill="white"/>
</g>
<defs>
<clipPath id="clip0">
<rect width="244" height="63" fill="white"/>
</clipPath>
</defs>
</svg>
