<svg width="60" height="60" viewBox="0 0 60 60" fill="none" xmlns="http://www.w3.org/2000/svg">
<path d="M54.0002 21.9995H56.0002V23.9995H54.0002V21.9995Z" fill="#4285F4"/>
<path d="M52 25H56V27H52V25Z" fill="#4285F4"/>
<path d="M50 28.0005H56V30.0005H50V28.0005Z" fill="#4285F4"/>
<path d="M6.87695 10.5347L10.5334 6.87817L11.9476 8.29241L8.29115 11.9489L6.87695 10.5347Z" fill="#4285F4"/>
<path d="M3.87817 7.5354L7.53458 3.87891L8.94877 5.29314L5.29237 8.94963L3.87817 7.5354Z" fill="#4285F4"/>
<path d="M57 34C57.7949 33.9976 58.5566 33.6808 59.1187 33.1187C59.6808 32.5566 59.9976 31.7949 60 31V3C59.9976 2.20508 59.6808 1.4434 59.1187 0.881302C58.5566 0.319207 57.7949 0.00237409 57 0H3C2.20508 0.00237409 1.4434 0.319207 0.881302 0.881302C0.319207 1.4434 0.00237409 2.20508 0 3V31C0.00237409 31.7949 0.319207 32.5566 0.881302 33.1187C1.4434 33.6808 2.20508 33.9976 3 34H14.69C15.0371 34.7479 15.5184 35.4258 16.11 36H16C15.2051 36.0024 14.4434 36.3192 13.8813 36.8813C13.3192 37.4434 13.0024 38.2051 13 39V40H9C8.20508 40.0024 7.4434 40.3192 6.8813 40.8813C6.31921 41.4434 6.00237 42.2051 6 43V45H3C2.20508 45.0024 1.4434 45.3192 0.881302 45.8813C0.319207 46.4434 0.00237409 47.2051 0 48V59C0 59.2652 0.105357 59.5196 0.292893 59.7071C0.48043 59.8946 0.734784 60 1 60H7C7.26522 60 7.51957 59.8946 7.70711 59.7071C7.89464 59.5196 8 59.2652 8 59V58H52V59C52 59.2652 52.1054 59.5196 52.2929 59.7071C52.4804 59.8946 52.7348 60 53 60H59C59.2652 60 59.5196 59.8946 59.7071 59.7071C59.8946 59.5196 60 59.2652 60 59V48C59.9976 47.2051 59.6808 46.4434 59.1187 45.8813C58.5566 45.3192 57.7949 45.0024 57 45H54V43C53.9976 42.2051 53.6808 41.4434 53.1187 40.8813C52.5566 40.3192 51.7949 40.0024 51 40H47V39C46.9976 38.2051 46.6808 37.4434 46.1187 36.8813C45.5566 36.3192 44.7949 36.0024 44 36H43.89C44.4816 35.4258 44.9629 34.7479 45.31 34H57ZM6 58H2V48C2 47.7348 2.10536 47.4804 2.29289 47.2929C2.48043 47.1054 2.73478 47 3 47H6V58ZM54 47H57C57.2652 47 57.5196 47.1054 57.7071 47.2929C57.8946 47.4804 58 47.7348 58 48V58H54V47ZM14.08 32H3C2.73478 32 2.48043 31.8946 2.29289 31.7071C2.10536 31.5196 2 31.2652 2 31V3C2 2.73478 2.10536 2.48043 2.29289 2.29289C2.48043 2.10536 2.73478 2 3 2H57C57.2652 2 57.5196 2.10536 57.7071 2.29289C57.8946 2.48043 58 2.73478 58 3V31C58 31.2652 57.8946 31.5196 57.7071 31.7071C57.5196 31.8946 57.2652 32 57 32H45.92C45.9719 31.6692 45.9986 31.3349 46 31C46 29.1435 45.2625 27.363 43.9497 26.0503C42.637 24.7375 40.8565 24 39 24C37.1435 24 35.363 24.7375 34.0503 26.0503C32.7375 27.363 32 29.1435 32 31C32.0014 31.3349 32.0281 31.6692 32.08 32H27.92C27.9719 31.6692 27.9986 31.3349 28 31C28 29.1435 27.2625 27.363 25.9497 26.0503C24.637 24.7375 22.8565 24 21 24C19.1435 24 17.363 24.7375 16.0503 26.0503C14.7375 27.363 14 29.1435 14 31C14.0014 31.3349 14.0281 31.6692 14.08 32ZM26 36H25.89C26.4816 35.4258 26.9629 34.7479 27.31 34H32.69C33.0371 34.7479 33.5184 35.4258 34.11 36H34C33.2051 36.0024 32.4434 36.3192 31.8813 36.8813C31.3192 37.4434 31.0024 38.2051 31 39V40H29V39C28.9976 38.2051 28.6808 37.4434 28.1187 36.8813C27.5566 36.3192 26.7949 36.0024 26 36ZM16 31C16 30.0111 16.2932 29.0444 16.8427 28.2221C17.3921 27.3999 18.173 26.759 19.0866 26.3806C20.0002 26.0022 21.0055 25.9031 21.9755 26.0961C22.9454 26.289 23.8363 26.7652 24.5355 27.4645C25.2348 28.1637 25.711 29.0546 25.9039 30.0245C26.0969 30.9945 25.9978 31.9998 25.6194 32.9134C25.241 33.827 24.6001 34.6079 23.7779 35.1573C22.9556 35.7068 21.9889 36 21 36C19.6739 36 18.4021 35.4732 17.4645 34.5355C16.5268 33.5979 16 32.3261 16 31ZM15 39C15 38.7348 15.1054 38.4804 15.2929 38.2929C15.4804 38.1054 15.7348 38 16 38H26C26.2652 38 26.5196 38.1054 26.7071 38.2929C26.8946 38.4804 27 38.7348 27 39V40H15V39ZM51 42C51.2652 42 51.5196 42.1054 51.7071 42.2929C51.8946 42.4804 52 42.7348 52 43V56H8V43C8 42.7348 8.10536 42.4804 8.29289 42.2929C8.48043 42.1054 8.73478 42 9 42H51ZM44 38C44.2652 38 44.5196 38.1054 44.7071 38.2929C44.8946 38.4804 45 38.7348 45 39V40H33V39C33 38.7348 33.1054 38.4804 33.2929 38.2929C33.4804 38.1054 33.7348 38 34 38H44ZM39 36C38.0111 36 37.0444 35.7068 36.2221 35.1573C35.3999 34.6079 34.759 33.827 34.3806 32.9134C34.0022 31.9998 33.9031 30.9945 34.0961 30.0245C34.289 29.0546 34.7652 28.1637 35.4645 27.4645C36.1637 26.7652 37.0546 26.289 38.0245 26.0961C38.9945 25.9031 39.9998 26.0022 40.9134 26.3806C41.827 26.759 42.6079 27.3999 43.1573 28.2221C43.7068 29.0444 44 30.0111 44 31C44 32.3261 43.4732 33.5979 42.5355 34.5355C41.5979 35.4732 40.3261 36 39 36Z" fill="#4285F4"/>
<path d="M38.45 14.1099L26.45 8.1099C26.2978 8.03319 26.1285 7.99667 25.9581 8.00381C25.7878 8.01094 25.6222 8.06149 25.4769 8.15067C25.3316 8.23984 25.2115 8.36467 25.1281 8.5133C25.0446 8.66194 25.0005 8.82944 25 8.9999V20.9999C24.9997 21.1698 25.0426 21.3371 25.1249 21.4858C25.2071 21.6345 25.3259 21.7598 25.47 21.8499C25.6294 21.9478 25.8129 21.9998 26 21.9999C26.1564 21.9979 26.3103 21.9603 26.45 21.8899L38.45 15.8899C38.6138 15.806 38.7513 15.6785 38.8473 15.5215C38.9432 15.3644 38.994 15.1839 38.994 14.9999C38.994 14.8159 38.9432 14.6354 38.8473 14.4783C38.7513 14.3213 38.6138 14.1938 38.45 14.1099ZM27 19.3799V10.6199L35.76 14.9999L27 19.3799Z" fill="#4285F4"/>
</svg>
