<svg width="60" height="60" viewBox="0 0 60 60" fill="none" xmlns="http://www.w3.org/2000/svg">
<path d="M18.9104 23.9015C19.1562 23.9015 19.402 23.8076 19.5907 23.6218C25.3352 17.945 34.6498 17.9102 40.3498 23.5444C40.7272 23.9169 41.334 23.9169 41.7104 23.5444L44.4859 20.8018C44.6698 20.6198 44.7733 20.3731 44.7733 20.1137C44.7733 19.8544 44.6698 19.6076 44.4859 19.4256C36.5146 11.5463 23.5014 11.5908 15.4749 19.5234C15.291 19.7053 15.1875 19.9521 15.1875 20.2115C15.1875 20.4708 15.291 20.7176 15.4749 20.8995L18.2301 23.6218C18.4188 23.8086 18.6646 23.9015 18.9104 23.9015ZM42.4101 20.1321L41.0107 21.516C34.7552 16.0115 25.2201 16.0424 18.9307 21.5934L17.5507 20.2298C24.6201 13.9318 35.3872 13.8911 42.4101 20.1321Z" fill="#4285F4"/>
<path d="M9.96515 14.078C9.78128 14.2589 9.67773 14.5067 9.67773 14.766C9.67773 15.0254 9.78128 15.2722 9.96515 15.4541L12.7203 18.1764C12.909 18.3622 13.1548 18.456 13.4006 18.456C13.6464 18.456 13.8923 18.3622 14.081 18.1764C22.8864 9.47443 37.1606 9.42314 45.8993 18.0602C46.2768 18.4328 46.8835 18.4328 47.26 18.0602L50.0345 15.3177C50.2193 15.1367 50.3229 14.8889 50.3229 14.6296C50.3229 14.3702 50.2193 14.1235 50.0355 13.9415C39.0264 3.05927 21.0506 3.12218 9.96515 14.078ZM46.5671 16.0251C37.2632 7.52734 22.7761 7.57669 13.4142 16.1412L12.0352 14.7786C22.1732 5.46605 37.8961 5.40411 47.9655 14.6431L46.5671 16.0251Z" fill="#4285F4"/>
<path d="M36.1618 29.0293L38.9363 26.2868C39.1202 26.1048 39.2237 25.858 39.2237 25.5987C39.2237 25.3393 39.1202 25.0926 38.9363 24.9106C34.0047 20.0342 25.9521 20.0613 20.9857 24.9697C20.8018 25.1516 20.6982 25.3984 20.6982 25.6577C20.6982 25.9171 20.8018 26.1638 20.9857 26.3458L23.7408 29.068C23.9295 29.2538 24.1753 29.3477 24.4211 29.3477C24.667 29.3477 24.9128 29.2538 25.1015 29.068C27.786 26.4164 32.1389 26.3971 34.8002 29.0293C35.1776 29.4019 35.7844 29.4019 36.1618 29.0293ZM24.4579 27.0561L23.074 25.6887C27.0621 22.3984 32.8831 22.3732 36.847 25.6297L35.4437 27.0174C32.254 24.4935 27.6631 24.5071 24.4579 27.0561Z" fill="#4285F4"/>
<path d="M29.9999 29.1003C27.865 29.1003 26.1289 30.821 26.1289 32.9374C26.1289 35.0539 27.865 36.7745 29.9999 36.7745C32.1347 36.7745 33.8708 35.0539 33.8708 32.9374C33.8708 30.821 32.1347 29.1003 29.9999 29.1003ZM29.9999 34.8391C28.9325 34.8391 28.0644 33.9855 28.0644 32.9374C28.0644 31.8894 28.9325 31.0358 29.9999 31.0358C31.0673 31.0358 31.9354 31.8894 31.9354 32.9374C31.9354 33.9855 31.0673 34.8391 29.9999 34.8391Z" fill="#4285F4"/>
<path d="M22.9321 49.7644L19.2915 40.298C19.1473 39.9244 18.7882 39.6777 18.3876 39.6777C17.9869 39.6777 17.6279 39.9244 17.4837 40.298L13.8431 49.7644L11.594 38.5203L9.69629 38.9006L12.5995 53.4167C12.6837 53.8396 13.0369 54.1551 13.4666 54.1909C13.8944 54.2344 14.2969 53.9751 14.4527 53.5744L18.3876 43.3415L22.3224 53.5735C22.4676 53.9499 22.8285 54.1938 23.2263 54.1938C23.2534 54.1938 23.2814 54.1928 23.3085 54.1899C23.7373 54.1541 24.0905 53.8386 24.1756 53.4157L27.0789 38.8996L25.1811 38.5193L22.9321 49.7644Z" fill="#4285F4"/>
<path d="M30 38.7097H31.9355V54.1936H30V38.7097Z" fill="#4285F4"/>
<path d="M48.3867 38.7097H50.3222V54.1936H48.3867V38.7097Z" fill="#4285F4"/>
<path d="M34.8389 39.6775V54.1936H36.7744V46.4517H45.484V44.5162H36.7744V40.6452H45.484V38.7097H35.8066C35.2724 38.7097 34.8389 39.1423 34.8389 39.6775Z" fill="#4285F4"/>
<path d="M55.1613 0H4.83871C2.17065 0 0 2.17065 0 4.83871V55.1613C0 57.8294 2.17065 60 4.83871 60H55.1613C57.8294 60 60 57.8294 60 55.1613V4.83871C60 2.17065 57.8294 0 55.1613 0ZM58.0645 55.1613C58.0645 56.7619 56.7619 58.0645 55.1613 58.0645H4.83871C3.23806 58.0645 1.93548 56.7619 1.93548 55.1613V4.83871C1.93548 3.23806 3.23806 1.93548 4.83871 1.93548H55.1613C56.7619 1.93548 58.0645 3.23806 58.0645 4.83871V55.1613Z" fill="#4285F4"/>
</svg>
