<svg width="60" height="52" viewBox="0 0 60 52" fill="none" xmlns="http://www.w3.org/2000/svg">
<path d="M59.1211 14.09C59.6065 14.09 60 13.6965 60 13.2111V2.05078C60 0.920039 59.08 0 57.9492 0H2.05078C0.920039 0 0 0.920039 0 2.05078V40.0657C0 41.1965 0.920039 42.1165 2.05078 42.1165H3.75V49.5348C3.75 50.6656 4.67004 51.5856 5.80078 51.5856H9.52805C10.573 51.5856 11.4377 50.8002 11.5632 49.7888H13.6591C14.2157 49.7888 14.7366 49.5697 15.126 49.1722C15.5141 48.776 15.7216 48.2529 15.7102 47.6994C15.6709 45.7921 15.5426 43.9207 15.3539 42.1166H44.6461C44.4574 43.9208 44.3291 45.792 44.2898 47.6994C44.2785 48.253 44.4859 48.7761 44.874 49.1724C45.2634 49.57 45.7845 49.7889 46.3409 49.7889H48.4368C48.5621 50.8003 49.427 51.5857 50.472 51.5857H54.1992C55.33 51.5857 56.25 50.6657 56.25 49.5349V42.1166H57.9492C59.08 42.1166 60 41.1966 60 40.0658V17.359C60 16.8736 59.6065 16.4801 59.1211 16.4801C58.6357 16.4801 58.2422 16.8736 58.2422 17.359V40.0658C58.2422 40.2273 58.1107 40.3588 57.9492 40.3588H56.25V4.62891C56.25 4.14352 55.8565 3.75 55.3711 3.75H4.62891C4.14352 3.75 3.75 4.14352 3.75 4.62891V40.3587H2.05078C1.8893 40.3587 1.75781 40.2272 1.75781 40.0657V2.05078C1.75781 1.8893 1.8893 1.75781 2.05078 1.75781H57.9492C58.1107 1.75781 58.2422 1.8893 58.2422 2.05078V13.211C58.2422 13.6965 58.6357 14.09 59.1211 14.09ZM11.4258 22.0034C11.5873 22.0034 11.7188 22.1348 11.7188 22.2963V25.3651C11.7188 25.5266 11.5873 25.6581 11.4258 25.6581H5.50781V22.0034H11.4258ZM13.8702 47.9421C13.8377 47.9753 13.7671 48.0309 13.659 48.0309H11.5731C11.5417 45.2504 11.3632 42.3143 11.0386 39.2858C10.9868 38.8031 10.5534 38.4537 10.071 38.5056C9.58828 38.5573 9.23895 38.9905 9.29074 39.4731C9.64242 42.7547 9.82102 45.9244 9.8216 48.895C9.82148 48.8999 9.8209 48.9048 9.8209 48.9097V49.5347C9.8209 49.6962 9.68941 49.8277 9.52793 49.8277H5.80078C5.6393 49.8277 5.50781 49.6962 5.50781 49.5347V27.4159H10.5806C11.6173 30.8588 13.7728 39.0081 13.9526 47.7356C13.9547 47.8347 13.9089 47.9026 13.8702 47.9421ZM41.3271 5.50781C41.7472 7.82977 43.2735 15.0304 46.9273 21.0795C46.6747 21.4204 46.5234 21.8405 46.5234 22.2962V25.365C46.5234 26.1635 46.9832 26.8552 47.6509 27.1937C46.9745 29.4662 46.1104 32.7477 45.4255 36.6088H30.8789V5.50781H41.3271ZM54.4922 25.6581H48.5742C48.4127 25.6581 48.2812 25.5266 48.2812 25.3651V22.2963C48.2812 22.1348 48.4127 22.0034 48.5742 22.0034H54.4922V25.6581ZM54.4922 49.5349C54.4922 49.6964 54.3607 49.8279 54.1992 49.8279H50.472C50.3105 49.8279 50.179 49.6964 50.179 49.5349V48.91C50.179 48.9049 50.1783 48.9001 50.1783 48.8952C50.1789 45.9246 50.3573 42.7549 50.7091 39.4733C50.7609 38.9906 50.4116 38.5575 49.9289 38.5058C49.4479 38.454 49.0131 38.8034 48.9613 39.2861C48.6367 42.3145 48.4583 45.2507 48.4268 48.0312H46.3409C46.2328 48.0312 46.1623 47.9755 46.1297 47.9423C46.0909 47.9029 46.0452 47.8349 46.0472 47.7357C46.227 39.0083 48.3825 30.8589 49.4191 27.416H54.4922V49.5349ZM54.4922 5.50781V20.2264V20.2455H48.5742C48.5428 20.2455 48.5123 20.2488 48.4814 20.2502C45.1356 14.7475 43.6034 8.01985 43.1188 5.50793H54.4922V5.50781ZM16.8823 5.50781C16.5932 7.01473 15.9286 10.0386 14.7206 13.3978C14.5564 13.8546 14.7935 14.358 15.2503 14.5223C15.707 14.6864 16.2105 14.4495 16.3748 13.9927C17.7274 10.2312 18.412 6.93586 18.6721 5.50781H29.1211V36.6088H24.613C24.1276 36.6088 23.7341 37.0023 23.7341 37.4877C23.7341 37.9731 24.1276 38.3666 24.613 38.3666H29.9944C29.9963 38.3666 29.9981 38.3668 30 38.3668C30.0019 38.3668 30.0037 38.3666 30.0056 38.3666H45.1339C45.033 39.0181 44.938 39.6822 44.8509 40.3588H15.1491C15.062 39.6823 14.967 39.0182 14.8661 38.3666H20.4652C20.9505 38.3666 21.3441 37.9731 21.3441 37.4877C21.3441 37.0023 20.9505 36.6088 20.4652 36.6088H14.5744C13.8895 32.7477 13.0254 29.4663 12.349 27.1937C13.0167 26.8552 13.4764 26.1635 13.4764 25.365V22.2962C13.4764 21.8405 13.3252 21.4204 13.0726 21.0795C13.6671 20.0943 14.2365 19.0252 14.7687 17.8935C14.9753 17.4541 14.7866 16.9307 14.3473 16.7241C13.9079 16.5177 13.3845 16.7061 13.1779 17.1455C12.657 18.2531 12.1 19.2952 11.5195 20.2501C11.4881 20.2487 11.4573 20.2453 11.4255 20.2453H5.50781V5.50781H16.8823Z" fill="#4285F4"/>
</svg>
