<svg width="21" height="24" viewBox="0 0 21 24" fill="none" xmlns="http://www.w3.org/2000/svg">
<path d="M19.9078 12.1516C19.6598 11.0741 18.7785 10.2794 17.7178 10.1611C15.2064 9.88052 12.6633 9.8792 10.1326 9.88052C7.60081 9.8792 5.05821 9.88052 2.54604 10.1611C1.48581 10.2796 0.605016 11.0744 0.357293 12.1516C0.00423456 13.6858 0 15.3606 0 16.9404C0 18.5201 3.15501e-08 20.1946 0.353058 21.7289C0.600782 22.8061 1.48158 23.6008 2.54234 23.7194C5.05398 24.0002 7.59658 24.0013 10.1281 24.0002C12.6598 24.0015 15.2019 24.0002 17.7143 23.7194C18.7746 23.6008 19.6559 22.8061 19.9036 21.7289C20.2564 20.1946 20.2582 18.5201 20.2582 16.9404C20.258 15.3603 20.2606 13.6858 19.9078 12.1516ZM5.77835 13.3407H4.31213V21.1318H2.95018V13.3407H1.51069V12.0645H5.77835V13.3407ZM9.47753 21.1321H8.25241V20.395C7.7657 20.9529 7.3036 21.225 6.85341 21.225C6.4588 21.225 6.18726 21.0651 6.06472 20.7229C5.99802 20.5186 5.95674 20.1952 5.95674 19.7183V14.3758H7.1808V19.3501C7.1808 19.637 7.1808 19.786 7.19191 19.8262C7.22129 20.0163 7.31419 20.1126 7.47828 20.1126C7.72388 20.1126 7.9806 19.9234 8.25215 19.5393V14.3758H9.47726L9.47753 21.1321ZM14.1284 19.1042C14.1284 19.7291 14.0863 20.1793 14.0046 20.4657C13.841 20.9682 13.5136 21.225 13.0266 21.225C12.591 21.225 12.1707 20.9831 11.7613 20.4776V21.1323H10.5372V12.0645H11.7613V15.0258C12.1567 14.5391 12.5764 14.293 13.0266 14.293C13.5136 14.293 13.8413 14.5494 14.0046 15.0552C14.0869 15.327 14.1284 15.7737 14.1284 16.4134V19.1042ZM18.7486 17.977H16.3002V19.1746C16.3002 19.8 16.5048 20.1123 16.9256 20.1123C17.2271 20.1123 17.4026 19.9485 17.4724 19.6214C17.4838 19.555 17.4999 19.2829 17.4999 18.7919H18.7489V18.9706C18.7489 19.3652 18.7338 19.637 18.7227 19.7593C18.6817 20.0303 18.5853 20.2762 18.4368 20.4927C18.0978 20.9833 17.5955 21.2252 16.9561 21.2252C16.3156 21.2252 15.8281 20.9947 15.4742 20.5334C15.2146 20.1952 15.0812 19.6627 15.0812 18.9446V16.5783C15.0812 15.856 15.1995 15.3278 15.4597 14.9864C15.8133 14.524 16.3005 14.2938 16.9259 14.2938C17.5402 14.2938 18.0272 14.524 18.3702 14.9864C18.6266 15.3278 18.7491 15.856 18.7491 16.5783V17.977H18.7486Z" fill="#4285F4"/>
<path d="M16.9158 15.3945C16.5066 15.3945 16.3015 15.7071 16.3015 16.3317V16.9568H17.5256V16.3317C17.5253 15.7071 17.3207 15.3945 16.9158 15.3945Z" fill="#4285F4"/>
<path d="M12.3723 15.3945C12.1706 15.3945 11.9663 15.4898 11.7617 15.6923V19.8101C11.966 20.015 12.1706 20.1119 12.3723 20.1119C12.7253 20.1119 12.9048 19.8101 12.9048 19.2001V16.3163C12.9048 15.7071 12.7253 15.3945 12.3723 15.3945Z" fill="#4285F4"/>
<path d="M13.0538 9.25519C13.5051 9.25519 13.9746 8.981 14.4671 8.41674V9.1615H15.7044V2.3335H14.4671V7.55209C14.1929 7.93956 13.933 8.13117 13.6856 8.13117C13.5199 8.13117 13.4225 8.03325 13.3955 7.84137C13.3804 7.80087 13.3804 7.65028 13.3804 7.36048V2.3335H12.1471V7.73259C12.1471 8.2148 12.1884 8.54113 12.2567 8.74783C12.3811 9.09374 12.6555 9.25519 13.0538 9.25519Z" fill="#4285F4"/>
<path d="M4.44039 5.4515V9.16232H5.8124V5.4515L7.46282 0H6.07547L5.13936 3.59807L4.16541 0H2.72168C3.01095 0.849299 3.31187 1.70283 3.60115 2.55292C4.04128 3.83071 4.316 4.79408 4.44039 5.4515Z" fill="#4285F4"/>
<path d="M9.30407 9.25378C9.92391 9.25378 10.4056 9.02061 10.7473 8.55481C11.0069 8.21313 11.1313 7.67481 11.1313 6.94911V4.55815C11.1313 3.82822 11.0072 3.29466 10.7473 2.94981C10.4056 2.48268 9.92417 2.24951 9.30407 2.24951C8.68741 2.24951 8.20599 2.48268 7.86352 2.94981C7.60071 3.29466 7.47632 3.82822 7.47632 4.55815V6.94911C7.47632 7.67481 7.60071 8.21313 7.86352 8.55481C8.20573 9.02061 8.68741 9.25378 9.30407 9.25378ZM8.71361 4.31017C8.71361 3.67842 8.90523 3.36347 9.30407 3.36347C9.70292 3.36347 9.894 3.67815 9.894 4.31017V7.18227C9.894 7.81402 9.70292 8.13002 9.30407 8.13002C8.90523 8.13002 8.71361 7.81402 8.71361 7.18227V4.31017Z" fill="#4285F4"/>
</svg>
